<?xml version="1.0" encoding="UTF-8" standalone="no"?><svg width="15px" height="15px" viewBox="0 0 15 15" version="1.1" xmlns="http://www.w3.org/2000/svg" xmlns:xlink="http://www.w3.org/1999/xlink"><!--Generator: Sketch 3.6.1 (26313) - http://www.bohemiancoding.com/sketch--><title>Checkbox</title><desc>Created with Sketch.</desc><defs/><g id="Page-1" stroke="none" stroke-width="1" fill="none" fill-rule="evenodd"><g id="Desktop" transform="translate(-663.000000, -31.000000)" fill="#60A5AC"><path d="M663,32.9918842 C663,31.8917969 663.893397,31 664.991884,31 L676.008116,31 C677.108203,31 678,31.8933973 678,32.9918842 L678,44.0081158 C678,45.1082031 677.106603,46 676.008116,46 L664.991884,46 C663.891797,46 663,45.1066027 663,44.0081158 L663,32.9918842 Z M669.686829,42.0108643 L666.002197,37.9986267 C666.002197,37.9986267 666.591797,37.4938354 667.002197,37.0346069 C668.529297,38.9421997 669.160461,39.7642212 670.059204,40.7424927 C670.806519,39.7642212 674.056458,33.9863892 674.056458,33.9863892 L675.044861,35.0183105 L670.52243,42.0108643 L669.686829,42.0108643 Z" id="Checkbox"/></g></g></svg>