<?xml version="1.0" encoding="UTF-8" standalone="no"?><svg width="80px" height="15px" viewBox="0 0 80 15" version="1.1" xmlns="http://www.w3.org/2000/svg" xmlns:xlink="http://www.w3.org/1999/xlink"><!--Generator: Sketch 3.6.1 (26313) - http://www.bohemiancoding.com/sketch--><title>Selector</title><desc>Created with Sketch.</desc><defs/><g id="Page-1" stroke="none" stroke-width="1" fill="none" fill-rule="evenodd"><g id="Desktop" transform="translate(-221.000000, -31.000000)" fill="#5DA3AB"><g id="Selector" transform="translate(221.000000, 31.000000)"><g><path d="M1,1.99188419 L1,1.99188419 L1,13.0081158 C1,13.5543642 1.44664395,14 1.99749826,14 L78.0025017,14 C78.5516502,14 79,13.5535475 79,13.0081158 L79,1.99188419 C79,1.44563582 78.553356,1 78.0025017,1 L1.99749826,1 C1.44834981,1 1,1.44645254 1,1.99188419 L1,1.99188419 Z M0,1.99188419 C0,0.891796927 0.8984375,0 1.99749826,0 L78.0025017,0 C79.1056896,0 80,0.893397331 80,1.99188419 L80,13.0081158 C80,14.1082031 79.1015625,15 78.0025017,15 L1.99749826,15 C0.894310431,15 0,14.1066027 0,13.0081158 L0,1.99188419 L0,1.99188419 Z" id="Rectangle-1-Copy"/><polygon id="Triangle-1" transform="translate(72.500000, 7.500000) rotate(-180.000000) translate(-72.500000, -7.500000) " points="72.5 6 75 9 70 9 "/></g></g></g></g></svg>