<?xml version="1.0" encoding="UTF-8" standalone="no"?><svg width="81px" height="16px" viewBox="0 0 81 16" version="1.1" xmlns="http://www.w3.org/2000/svg" xmlns:xlink="http://www.w3.org/1999/xlink"><!--Generator: Sketch 3.6.1 (26313) - http://www.bohemiancoding.com/sketch--><title>Input_Flexible</title><desc>Created with Sketch.</desc><defs/><g id="Page-1" stroke="none" stroke-width="1" fill="none" fill-rule="evenodd"><g id="Desktop" transform="translate(-120.000000, -31.000000)" fill="#5DA3AB"><g id="Input_Flexible" transform="translate(120.000000, 31.000000)"><path d="M1,1.99188419 L1,1.99188419 L1,13.0081158 C1,13.5543642 1.44664395,14 1.99749826,14 L78.0025017,14 C78.5516502,14 79,13.5535475 79,13.0081158 L79,1.99188419 C79,1.44563582 78.553356,1 78.0025017,1 L1.99749826,1 C1.44834981,1 1,1.44645254 1,1.99188419 L1,1.99188419 Z M0,1.99188419 C0,0.891796927 0.8984375,0 1.99749826,0 L78.0025017,0 C79.1056896,0 80,0.893397331 80,1.99188419 L80,13.0081158 C80,14.1082031 79.1015625,15 78.0025017,15 L1.99749826,15 C0.894310431,15 0,14.1066027 0,13.0081158 L0,1.99188419 L0,1.99188419 Z" id="Rectangle-1-Copy-2"/><path d="M73.8535534,14.8535534 L79.8535534,8.85355339 L80.2071068,8.5 L79.5,7.79289322 L79.1464466,8.14644661 L73.1464466,14.1464466 L72.7928932,14.5 L73.5,15.2071068 L73.8535534,14.8535534 L73.8535534,14.8535534 Z" id="Line"/><path d="M71.8535534,14.8535534 L79.8535534,6.85355339 L80.2071068,6.5 L79.5,5.79289322 L79.1464466,6.14644661 L71.1464466,14.1464466 L70.7928932,14.5 L71.5,15.2071068 L71.8535534,14.8535534 L71.8535534,14.8535534 Z" id="Line-Copy-2"/><path d="M75.8535534,14.8535534 L79.8535534,10.8535534 L80.2071068,10.5 L79.5,9.79289322 L79.1464466,10.1464466 L75.1464466,14.1464466 L74.7928932,14.5 L75.5,15.2071068 L75.8535534,14.8535534 L75.8535534,14.8535534 Z" id="Line-Copy"/></g></g></g></svg>