<?xml version="1.0" encoding="UTF-8" standalone="no"?><svg width="80px" height="15px" viewBox="0 0 80 15" version="1.1" xmlns="http://www.w3.org/2000/svg" xmlns:xlink="http://www.w3.org/1999/xlink"><!--Generator: Sketch 3.6.1 (26313) - http://www.bohemiancoding.com/sketch--><title>Selector_users</title><desc>Created with Sketch.</desc><defs/><g id="Page-1" stroke="none" stroke-width="1" fill="none" fill-rule="evenodd"><g id="Desktop" transform="translate(-320.000000, -31.000000)" fill="#5DA3AB"><g id="Selector_users" transform="translate(320.000000, 31.000000)"><path d="M66,0.499076843 C66,0.781400376 65.7785526,1 65.5,1 C65.2241148,1 65,0.776225214 65,0.499076843 L65,14.5009232 C65,14.2185996 65.2214474,14 65.5,14 C65.7758852,14 66,14.2237748 66,14.5009232 L66,0.499076843 L66,0.499076843 Z M65,0.499076843 C65,0.223444314 65.2319336,0 65.5,0 C65.7761424,0 66,0.223682597 66,0.499076843 L66,14.5009232 C66,14.7765557 65.7680664,15 65.5,15 C65.2238576,15 65,14.7763174 65,14.5009232 L65,0.499076843 L65,0.499076843 Z" id="Rectangle-3"/><g><path d="M1,1.99188419 L1,1.99188419 L1,13.0081158 C1,13.5543642 1.44664395,14 1.99749826,14 L78.0025017,14 C78.5516502,14 79,13.5535475 79,13.0081158 L79,1.99188419 C79,1.44563582 78.553356,1 78.0025017,1 L1.99749826,1 C1.44834981,1 1,1.44645254 1,1.99188419 L1,1.99188419 Z M0,1.99188419 C0,0.891796927 0.8984375,0 1.99749826,0 L78.0025017,0 C79.1056896,0 80,0.893397331 80,1.99188419 L80,13.0081158 C80,14.1082031 79.1015625,15 78.0025017,15 L1.99749826,15 C0.894310431,15 0,14.1066027 0,13.0081158 L0,1.99188419 L0,1.99188419 Z" id="Rectangle-1-Copy"/><path d="M72.5,3.03834847 C71.6715729,3.03834847 71,3.70992135 71,4.53834847 C71,5.3667756 71.6715729,6.03834847 72.5,6.03834847 C73.3284271,6.03834847 74,5.3667756 74,4.53834847 C74,3.70992135 73.3284271,3.03834847 72.5,3.03834847 L72.5,3.03834847 Z M72.5,7.27364259 C70.561,7.27364259 69,8.24418141 69,9.39128965 L69,11.4626132 C69.9859706,11.7427249 71.0613404,11.9065673 72.1879596,11.9324661 L72.8120404,11.9324661 C73.9386596,11.9065673 75.0140294,11.7427249 76,11.4626132 L76,9.39128965 C76,8.24418141 74.439,7.27364259 72.5,7.27364259 L72.5,7.27364259 Z" id="Shape"/></g><path d="M65,0.5 L65,14.5 L65,15 L66,15 L66,14.5 L66,0.5 L66,0 L65,0 L65,0.5 L65,0.5 Z" id="Line"/></g></g></g></svg>