<?xml version="1.0" encoding="UTF-8" standalone="no"?><svg width="80px" height="15px" viewBox="0 0 80 15" version="1.1" xmlns="http://www.w3.org/2000/svg" xmlns:xlink="http://www.w3.org/1999/xlink"><!--Generator: Sketch 3.6.1 (26313) - http://www.bohemiancoding.com/sketch--><title>Input</title><desc>Created with Sketch.</desc><defs/><g id="Page-1" stroke="none" stroke-width="1" fill="none" fill-rule="evenodd"><g id="Desktop" transform="translate(-20.000000, -31.000000)" fill="#5DA3AB"><path d="M21,32.9918842 L21,32.9918842 L21,44.0081158 C21,44.5543642 21.446644,45 21.9974983,45 L98.0025017,45 C98.5516502,45 99,44.5535475 99,44.0081158 L99,32.9918842 C99,32.4456358 98.553356,32 98.0025017,32 L21.9974983,32 C21.4483498,32 21,32.4464525 21,32.9918842 L21,32.9918842 Z M20,32.9918842 C20,31.8917969 20.8984375,31 21.9974983,31 L98.0025017,31 C99.1056896,31 100,31.8933973 100,32.9918842 L100,44.0081158 C100,45.1082031 99.1015625,46 98.0025017,46 L21.9974983,46 C20.8943104,46 20,45.1066027 20,44.0081158 L20,32.9918842 L20,32.9918842 Z" id="Input"/></g></g></svg>