<?xml version="1.0" encoding="UTF-8" standalone="no"?><svg width="80px" height="15px" viewBox="0 0 80 15" version="1.1" xmlns="http://www.w3.org/2000/svg" xmlns:xlink="http://www.w3.org/1999/xlink"><!--Generator: Sketch 3.6.1 (26313) - http://www.bohemiancoding.com/sketch--><title>Data_picker</title><desc>Created with Sketch.</desc><defs/><g id="Page-1" stroke="none" stroke-width="1" fill="none" fill-rule="evenodd"><g id="Desktop" transform="translate(-420.000000, -31.000000)" fill="#5DA3AB"><g id="Data_picker" transform="translate(420.000000, 31.000000)"><path d="M66,0.499076843 C66,0.781400376 65.7785526,1 65.5,1 C65.2241148,1 65,0.776225214 65,0.499076843 L65,14.5009232 C65,14.2185996 65.2214474,14 65.5,14 C65.7758852,14 66,14.2237748 66,14.5009232 L66,0.499076843 L66,0.499076843 Z M65,0.499076843 C65,0.223444314 65.2319336,0 65.5,0 C65.7761424,0 66,0.223682597 66,0.499076843 L66,14.5009232 C66,14.7765557 65.7680664,15 65.5,15 C65.2238576,15 65,14.7763174 65,14.5009232 L65,0.499076843 L65,0.499076843 Z" id="Rectangle-3"/><g><path d="M1,1.99188419 L1,1.99188419 L1,13.0081158 C1,13.5543642 1.44664395,14 1.99749826,14 L78.0025017,14 C78.5516502,14 79,13.5535475 79,13.0081158 L79,1.99188419 C79,1.44563582 78.553356,1 78.0025017,1 L1.99749826,1 C1.44834981,1 1,1.44645254 1,1.99188419 L1,1.99188419 Z M0,1.99188419 C0,0.891796927 0.8984375,0 1.99749826,0 L78.0025017,0 C79.1056896,0 80,0.893397331 80,1.99188419 L80,13.0081158 C80,14.1082031 79.1015625,15 78.0025017,15 L1.99749826,15 C0.894310431,15 0,14.1066027 0,13.0081158 L0,1.99188419 L0,1.99188419 Z" id="Rectangle-1-Copy"/><g id="Group" transform="translate(68.000000, 3.000000)"><path d="M2.0458374,0 L2.98602295,0 L2.98602295,0.981933594 L2.0458374,0.981933594 L2.0458374,0 Z" id="Rectangle-path"/><path d="M6.02270508,0 L7.02404785,0 L6.92559814,0.999572754 L6.02270508,0.999572754 L6.02270508,0 Z" id="Rectangle-path"/><path d="M8.04577637,1.05932617 C8.04577637,1.37010742 8.04577637,2.026062 7.00164795,2.02606201 L5.99822998,2.02606201 C4.98736572,2.026062 4.98736572,1.37010742 4.98736572,1.05932617 L4.04785156,0.971008301 C4.04785156,1.28178955 4.04785156,2.026062 2.98394775,2.02606201 L2.01519775,2.02606201 C0.736694336,2.026062 1.14063791,1.39302928 1.00701904,1.05932617 C0.988785008,1.01378804 1.00701904,1.125 1.00701904,1.125 L0.562218726,1.05932617 C0.251437476,1.05932617 0,0.81421875 0,1.125 L0,8.4375 C0,8.74828125 0.2514375,9 0.56221875,9 L8.4375,9 C8.74828125,9 9,8.74828125 9,8.4375 L9,1.125 C9,0.81421875 8.92583252,1.05932617 8.61505127,1.05932617 L8.04577637,1.05932617 Z M2,7.08496094 L2,5.98236084 L4.00079346,5.98236084 L4.00079346,7.00613403 L2,7.08496094 Z M4.02874756,5.0489502 L2.02398682,5.0489502 L2.02398682,4.02044678 L4.02874756,4.02044678 L4.02874756,4.62298584 L4.02874756,5.0489502 Z M7.0043335,7.00006104 L4.97442627,7.00006104 L4.97442627,5.98986816 L5.05255127,5.98986816 L7.0043335,5.98986816 L7.0043335,7.07684326 L7.0043335,7.00006104 Z M6.99139404,4.99951172 L4.94384766,5.0625 L4.94384766,4.00634766 L6.99139404,3.9375 L6.99139404,5.0625 C6.99139404,5.06380208 6.75,5.0625 6.75,5.0625 L6.99139404,4.99951172 Z" id="Shape"/></g></g><path d="M65,0.5 L65,14.5 L65,15 L66,15 L66,14.5 L66,0.5 L66,0 L65,0 L65,0.5 L65,0.5 Z" id="Line"/></g></g></g></svg>