<?xml version="1.0" encoding="utf-8"?><!--Generator: Adobe Illustrator 17.1.0, SVG Export Plug-In . SVG Version: 6.00 Build 0)--><!DOCTYPE svg PUBLIC "-//W3C//DTD SVG 1.1//EN" "http://www.w3.org/Graphics/SVG/1.1/DTD/svg11.dtd"><svg version="1.1" id="Layer_1" xmlns="http://www.w3.org/2000/svg" xmlns:xlink="http://www.w3.org/1999/xlink" x="0px" y="0px" width="225" height="50" viewBox="-9 0 225 50" enable-background="new -9 0 225 50" xml:space="preserve"><defs><g id="i1"><path fill="#A9B3C4" d="M25,1c0-0.6-0.4-1-1-1H1C0.4,0,0,0.4,0,1v23c0,0.6,0.4,1,1,1h23c0.6,0,1-0.4,1-1V1z"/><g><path fill="#FFFFFF" d="M6.8,9.9v6.3H5.6V9.9H3.3v-1h5.8v1H6.8z"/><path fill="#FFFFFF" d="M14.1,8.9h1.5l-2.2,3.6l2.2,3.7h-1.5l-1.6-2.7L11,16.1H9.5l2.3-3.7L9.6,8.9h1.5l1.5,2.6L14.1,8.9z"/><path fill="#FFFFFF" d="M19.5,9.9v6.3h-1.3V9.9H16v-1h5.8v1H19.5z"/></g></g><g id="i2"><path fill="#525C69" d="M25,26c0-0.6-0.4-1-1-1H1c-0.6,0-1,0.4-1,1v23c0,0.6,0.4,1,1,1h23c0.6,0,1-0.4,1-1V26z"/><g><path fill="#FFFFFF" d="M6.8,34.9v6.3H5.6v-6.3H3.3v-1h5.8v1H6.8z"/><path fill="#FFFFFF" d="M14.1,33.9h1.5l-2.2,3.6l2.2,3.7h-1.5l-1.6-2.7L11,41.1H9.5l2.3-3.7l-2.2-3.6h1.5l1.5,2.6L14.1,33.9z"/><path fill="#FFFFFF" d="M19.5,34.9v6.3h-1.3v-6.3H16v-1h5.8v1H19.5z"/></g></g><g id="a1"><path fill="#9556AF" d="M16,1c0-0.6-0.4-1-1-1H-8c-0.6,0-1,0.4-1,1v23c0,0.6,0.4,1,1,1h23c0.6,0,1-0.4,1-1V1z"/><g><path fill="#FFFFFF" d="M0.9,16.2c-0.5,0.2-1,0.3-1.6,0.3c-0.6,0-1.2-0.1-1.6-0.4c-0.5-0.3-0.8-0.7-1.1-1.2s-0.4-1.1-0.4-1.8v-0.6
			c0-1.1,0.3-2,0.8-2.6c0.5-0.6,1.3-0.9,2.2-0.9c0.8,0,1.5,0.2,1.9,0.6c0.5,0.4,0.8,1,0.9,1.7H0.7c-0.1-0.9-0.7-1.3-1.5-1.3
			c-0.6,0-1,0.2-1.3,0.6c-0.3,0.4-0.4,1-0.5,1.8v0.6c0,0.8,0.2,1.4,0.5,1.8c0.3,0.4,0.8,0.7,1.4,0.7c0.6,0,1.1-0.1,1.4-0.4v-1.4
			h-1.5v-1H2v2.8C1.7,15.7,1.3,16,0.9,16.2z"/><path fill="#FFFFFF" d="M3.5,16.3V9h1.3v7.3H3.5z"/><path fill="#FFFFFF" d="M7.6,13.2v3.1H6.3V9h4.7v1H7.6v2.2h2.9v1H7.6z"/></g></g><g id="a2"><path fill="#A9B3C4" d="M16,1c0-0.6-0.4-1-1-1H-8c-0.6,0-1,0.4-1,1v23c0,0.6,0.4,1,1,1h23c0.6,0,1-0.4,1-1V1z"/><g><path fill="#FFFFFF" d="M0.9,16.2c-0.5,0.2-1,0.3-1.6,0.3c-0.6,0-1.2-0.1-1.6-0.4c-0.5-0.3-0.8-0.7-1.1-1.2s-0.4-1.1-0.4-1.8v-0.6
			c0-1.1,0.3-2,0.8-2.6c0.5-0.6,1.3-0.9,2.2-0.9c0.8,0,1.5,0.2,1.9,0.6c0.5,0.4,0.8,1,0.9,1.7H0.7c-0.1-0.9-0.7-1.3-1.5-1.3
			c-0.6,0-1,0.2-1.3,0.6c-0.3,0.4-0.4,1-0.5,1.8v0.6c0,0.8,0.2,1.4,0.5,1.8c0.3,0.4,0.8,0.7,1.4,0.7c0.6,0,1.1-0.1,1.4-0.4v-1.4
			h-1.5v-1H2v2.8C1.7,15.7,1.3,16,0.9,16.2z"/><path fill="#FFFFFF" d="M3.5,16.3V9h1.3v7.3H3.5z"/><path fill="#FFFFFF" d="M7.6,13.2v3.1H6.3V9h4.7v1H7.6v2.2h2.9v1H7.6z"/></g></g><g id="b1"><path fill="#525C69" d="M16,1c0-0.6-0.4-1-1-1H-8c-0.6,0-1,0.4-1,1v23c0,0.6,0.4,1,1,1h23c0.6,0,1-0.4,1-1V1z"/><g><polygon fill="#FFFFFF" points="3.5,1.8 3.5,3.6 1.7,3.6 1.7,5.4 3.5,5.4 3.5,3.6 5.3,3.6 5.3,1.8 		"/><polygon fill="#FFFFFF" points="3.5,7.2 5.3,7.2 5.3,5.4 3.5,5.4 3.5,7.2 1.7,7.2 1.7,9 3.5,9 		"/><polygon fill="#FFFFFF" points="3.5,10.8 5.3,10.8 5.3,9 3.5,9 3.5,10.8 1.7,10.8 1.7,12.6 3.5,12.6 		"/><rect x="1.7" y="14.4" fill="#FFFFFF" width="3.6" height="5.4"/></g></g><g id="b2"><path fill="#A9B3C4" d="M16,1c0-0.6-0.4-1-1-1H-8c-0.6,0-1,0.4-1,1v23c0,0.6,0.4,1,1,1h23c0.6,0,1-0.4,1-1V1z"/><g><polygon fill="#FFFFFF" points="3.5,1.8 3.5,3.6 1.7,3.6 1.7,5.4 3.5,5.4 3.5,3.6 5.3,3.6 5.3,1.8 		"/><polygon fill="#FFFFFF" points="3.5,7.2 5.3,7.2 5.3,5.4 3.5,5.4 3.5,7.2 1.7,7.2 1.7,9 3.5,9 		"/><polygon fill="#FFFFFF" points="3.5,10.8 5.3,10.8 5.3,9 3.5,9 3.5,10.8 1.7,10.8 1.7,12.6 3.5,12.6 		"/><rect x="1.7" y="14.4" fill="#FFFFFF" width="3.6" height="5.4"/></g></g><g id="c1"><path fill="#D14967" d="M16,1c0-0.6-0.4-1-1-1H-8c-0.6,0-1,0.4-1,1v23c0,0.6,0.4,1,1,1h23c0.6,0,1-0.4,1-1V1z"/><g><path fill="#FFFFFF" d="M-4.2,16.3h-1.3V8.9h2.8c0.8,0,1.5,0.2,2,0.6c0.5,0.4,0.7,1,0.7,1.7c0,0.7-0.2,1.3-0.7,1.7s-1.1,0.6-2,0.6
			h-1.5V16.3z M-2.7,12.5c0.5,0,0.8-0.1,1-0.3c0.2-0.2,0.4-0.5,0.4-0.9c0-0.4-0.1-0.7-0.4-1c-0.2-0.2-0.6-0.4-1-0.4h-1.6v2.6H-2.7z"/><path fill="#FFFFFF" d="M1.1,8.9h2.2C4,8.9,4.5,9,5,9.3c0.5,0.3,0.9,0.7,1.2,1.2s0.4,1.1,0.4,1.8v0.4c0,0.7-0.1,1.3-0.4,1.8
			c-0.3,0.5-0.7,0.9-1.2,1.2s-1.1,0.4-1.8,0.4H1.1V8.9z M2.4,15.3h0.8c0.7,0,1.2-0.2,1.6-0.6c0.4-0.4,0.5-1,0.6-1.8v-0.4
			c0-0.8-0.2-1.4-0.5-1.8S4,9.9,3.3,9.9H2.4V15.3z"/><path fill="#FFFFFF" d="M9.2,13.2v3.1H7.9V8.9h4.7v1H9.2v2.2h3v1H9.2z"/></g></g><g id="c2"><path fill="#A9B3C4" d="M16,1c0-0.6-0.4-1-1-1H-8c-0.6,0-1,0.4-1,1v23c0,0.6,0.4,1,1,1h23c0.6,0,1-0.4,1-1V1z"/><g><path fill="#FFFFFF" d="M-4.2,16.3h-1.3V8.9h2.8c0.8,0,1.5,0.2,2,0.6c0.5,0.4,0.7,1,0.7,1.7c0,0.7-0.2,1.3-0.7,1.7s-1.1,0.6-2,0.6
			h-1.5V16.3z M-2.7,12.5c0.5,0,0.8-0.1,1-0.3c0.2-0.2,0.4-0.5,0.4-0.9c0-0.4-0.1-0.7-0.4-1c-0.2-0.2-0.6-0.4-1-0.4h-1.6v2.6H-2.7z"/><path fill="#FFFFFF" d="M1.1,8.9h2.2C4,8.9,4.5,9,5,9.3c0.5,0.3,0.9,0.7,1.2,1.2s0.4,1.1,0.4,1.8v0.4c0,0.7-0.1,1.3-0.4,1.8
			c-0.3,0.5-0.7,0.9-1.2,1.2s-1.1,0.4-1.8,0.4H1.1V8.9z M2.4,15.3h0.8c0.7,0,1.2-0.2,1.6-0.6c0.4-0.4,0.5-1,0.6-1.8v-0.4
			c0-0.8-0.2-1.4-0.5-1.8S4,9.9,3.3,9.9H2.4V15.3z"/><path fill="#FFFFFF" d="M9.2,13.2v3.1H7.9V8.9h4.7v1H9.2v2.2h3v1H9.2z"/></g></g><g id="d1"><path fill="#D14423" d="M16,1c0-0.6-0.4-1-1-1H-8c-0.6,0-1,0.4-1,1v23c0,0.6,0.4,1,1,1h23c0.6,0,1-0.4,1-1V1z"/><g><path fill="#FFFFFF" d="M1.8,17H0.3V7.9h3.5c1,0,1.8,0.3,2.4,0.8c0.6,0.5,0.9,1.2,0.9,2.1c0,0.9-0.3,1.6-0.9,2.1s-1.4,0.7-2.5,0.7
			H1.8V17z M3.7,12.3c0.6,0,1-0.1,1.3-0.4s0.4-0.6,0.4-1.1c0-0.5-0.2-0.9-0.5-1.2C4.7,9.3,4.3,9.2,3.8,9.2H1.8v3.2H3.7z"/></g></g><g id="d2"><path fill="#A9B3C4" d="M16,1c0-0.6-0.4-1-1-1H-8c-0.6,0-1,0.4-1,1v23c0,0.6,0.4,1,1,1h23c0.6,0,1-0.4,1-1V1z"/><g><path fill="#FFFFFF" d="M1.8,17H0.3V7.9h3.5c1,0,1.8,0.3,2.4,0.8c0.6,0.5,0.9,1.2,0.9,2.1c0,0.9-0.3,1.6-0.9,2.1s-1.4,0.7-2.5,0.7
			H1.8V17z M3.7,12.3c0.6,0,1-0.1,1.3-0.4s0.4-0.6,0.4-1.1c0-0.5-0.2-0.9-0.5-1.2C4.7,9.3,4.3,9.2,3.8,9.2H1.8v3.2H3.7z"/></g></g><g id="e1"><path fill="#525C69" d="M16,1c0-0.6-0.4-1-1-1H-8c-0.6,0-1,0.4-1,1v23c0,0.6,0.4,1,1,1h23c0.6,0,1-0.4,1-1V1z"/><g><path fill="#FFFFFF" d="M2.8,13.5c0.1-0.3,0.4-0.7,0.8-1.1l1-1c0.4-0.5,0.6-1,0.6-1.5c0-0.5-0.1-0.9-0.4-1.2
			C4.5,8.4,4.1,8.2,3.6,8.2c-0.5,0-0.9,0.1-1.2,0.4C2.1,8.9,1.9,9.2,1.9,9.7H0.6c0-0.8,0.3-1.4,0.9-1.9S2.7,7,3.6,7
			c0.9,0,1.7,0.2,2.2,0.7s0.8,1.2,0.8,2.1c0,0.9-0.4,1.7-1.2,2.5l-0.8,0.8c-0.4,0.4-0.5,1-0.5,1.7H2.6C2.6,14.3,2.7,13.8,2.8,13.5z
			 M2.8,16.7c0.1-0.1,0.3-0.2,0.6-0.2s0.5,0.1,0.6,0.2c0.1,0.1,0.2,0.3,0.2,0.6S4.1,17.6,4,17.8C3.8,17.9,3.6,18,3.4,18
			s-0.5-0.1-0.6-0.2c-0.1-0.1-0.2-0.3-0.2-0.5S2.6,16.8,2.8,16.7z"/></g></g><g id="e2"><path fill="#A9B3C4" d="M16,1c0-0.6-0.4-1-1-1H-8c-0.6,0-1,0.4-1,1v23c0,0.6,0.4,1,1,1h23c0.6,0,1-0.4,1-1V1z"/><g><path fill="#FFFFFF" d="M2.8,13.5c0.1-0.3,0.4-0.7,0.8-1.1l1-1c0.4-0.5,0.6-1,0.6-1.5c0-0.5-0.1-0.9-0.4-1.2
			C4.5,8.4,4.1,8.2,3.6,8.2c-0.5,0-0.9,0.1-1.2,0.4C2.1,8.9,1.9,9.2,1.9,9.7H0.6c0-0.8,0.3-1.4,0.9-1.9S2.7,7,3.6,7
			c0.9,0,1.7,0.2,2.2,0.7s0.8,1.2,0.8,2.1c0,0.9-0.4,1.7-1.2,2.5l-0.8,0.8c-0.4,0.4-0.5,1-0.5,1.7H2.6C2.6,14.3,2.7,13.8,2.8,13.5z
			 M2.8,16.7c0.1-0.1,0.3-0.2,0.6-0.2s0.5,0.1,0.6,0.2c0.1,0.1,0.2,0.3,0.2,0.6S4.1,17.6,4,17.8C3.8,17.9,3.6,18,3.4,18
			s-0.5-0.1-0.6-0.2c-0.1-0.1-0.2-0.3-0.2-0.5S2.6,16.8,2.8,16.7z"/></g></g><g id="f1"><path fill="#F8BE39" d="M16,1c0-0.6-0.4-1-1-1H-8c-0.6,0-1,0.4-1,1v23c0,0.6,0.4,1,1,1h23c0.6,0,1-0.4,1-1V1z"/><g><circle fill="#FFFFFF" cx="-2.2" cy="7.3" r="2"/><polygon fill="#FFFFFF" points="11.1,17.1 5.6,9.7 1.5,14.8 -0.2,12.4 -6.1,19.8 -2.5,19.8 5.3,19.8 13.2,19.8 		"/></g></g><g id="f2"><path fill="#A9B3C4" d="M16,1c0-0.6-0.4-1-1-1H-8c-0.6,0-1,0.4-1,1v23c0,0.6,0.4,1,1,1h23c0.6,0,1-0.4,1-1V1z"/><g><circle fill="#FFFFFF" cx="-2.2" cy="7.3" r="2"/><polygon fill="#FFFFFF" points="11.1,17.1 5.6,9.7 1.5,14.8 -0.2,12.4 -6.1,19.8 -2.5,19.8 5.3,19.8 13.2,19.8 		"/></g></g><g id="g1"><path fill="#1A9EB7" d="M15,0H-8c-0.6,0-1,0.4-1,1v23c0,0.6,0.4,1,1,1h23c0.6,0,1-0.4,1-1V1C16,0.4,15.6,0,15,0z"/><polygon fill="#FFFFFF" points="5.8,17 3.7,13.5 1.5,17 0,17 2.9,12.3 0.2,8 1.8,8 3.7,11.2 5.7,8 7.2,8 4.6,12.4 7.4,17 		"/></g><g id="g2"><path fill="#A9B3C4" d="M16,1c0-0.6-0.4-1-1-1H-8c-0.6,0-1,0.4-1,1v23c0,0.6,0.4,1,1,1h23c0.6,0,1-0.4,1-1V1z"/><polygon fill="#FFFFFF" points="5.9,17 3.7,13.5 1.5,17 0,17 2.9,12.3 0.2,8 1.8,8 3.8,11.2 5.8,8 7.3,8 4.6,12.4 7.5,17 		"/></g><g id="h1"><path fill="#4285C5" d="M16,1c0-0.6-0.4-1-1-1H-8c-0.6,0-1,0.4-1,1v23c0,0.6,0.4,1,1,1h23c0.6,0,1-0.4,1-1V1z"/><path fill="#FFFFFF" d="M6.6,17H5.1l-1.5-5.2c-0.1-0.2-0.1-0.6-0.2-1s-0.2-0.7-0.2-0.9c0,0.3-0.1,0.6-0.2,1s-0.2,0.8-0.2,1L1.4,17
		h-1.5l-1.1-4.5L-2.3,8h1.4l1.2,5.1c0.2,0.8,0.3,1.6,0.4,2.2c0-0.3,0.1-0.7,0.2-1.1s0.2-0.8,0.2-1.1L2.6,8H4l1.4,5.1
		c0.1,0.5,0.3,1.2,0.4,2.1C5.9,14.6,6,13.8,6.2,13l1.3-5h1.4L6.6,17z"/></g><g id="h2"><path fill="#A9B3C4" d="M16,1c0-0.6-0.4-1-1-1H-8c-0.6,0-1,0.4-1,1v23c0,0.6,0.4,1,1,1h23c0.6,0,1-0.4,1-1V1z"/><path fill="#FFFFFF" d="M6.6,17H5.1l-1.5-5.2c-0.1-0.2-0.1-0.6-0.2-1s-0.2-0.7-0.2-0.9c0,0.3-0.1,0.6-0.2,1s-0.2,0.8-0.2,1L1.4,17
		h-1.5l-1.1-4.5L-2.3,8h1.4l1.2,5.1c0.2,0.8,0.3,1.6,0.4,2.2c0-0.3,0.1-0.7,0.2-1.1s0.2-0.8,0.2-1.1L2.6,8H4l1.4,5.1
		c0.1,0.5,0.3,1.2,0.4,2.1C5.9,14.6,6,13.8,6.2,13l1.3-5h1.4L6.6,17z"/></g></defs><use xmlns="http://www.w3.org/2000/svg" xmlns:xlink="http://www.w3.org/1999/xlink" xlink:href="#h2" transform="translate(0,0)"/><use xmlns="http://www.w3.org/2000/svg" xmlns:xlink="http://www.w3.org/1999/xlink" xlink:href="#h1" transform="translate(0,25)"/><use xmlns="http://www.w3.org/2000/svg" xmlns:xlink="http://www.w3.org/1999/xlink" xlink:href="#g2" transform="translate(25,0)"/><use xmlns="http://www.w3.org/2000/svg" xmlns:xlink="http://www.w3.org/1999/xlink" xlink:href="#g1" transform="translate(25,25)"/><use xmlns="http://www.w3.org/2000/svg" xmlns:xlink="http://www.w3.org/1999/xlink" xlink:href="#f2" transform="translate(50,0)"/><use xmlns="http://www.w3.org/2000/svg" xmlns:xlink="http://www.w3.org/1999/xlink" xlink:href="#f1" transform="translate(50,25)"/><use xmlns="http://www.w3.org/2000/svg" xmlns:xlink="http://www.w3.org/1999/xlink" xlink:href="#e2" transform="translate(75,0)"/><use xmlns="http://www.w3.org/2000/svg" xmlns:xlink="http://www.w3.org/1999/xlink" xlink:href="#e1" transform="translate(75,25)"/><use xmlns="http://www.w3.org/2000/svg" xmlns:xlink="http://www.w3.org/1999/xlink" xlink:href="#d2" transform="translate(100,0)"/><use xmlns="http://www.w3.org/2000/svg" xmlns:xlink="http://www.w3.org/1999/xlink" xlink:href="#d1" transform="translate(100,25)"/><use xmlns="http://www.w3.org/2000/svg" xmlns:xlink="http://www.w3.org/1999/xlink" xlink:href="#c2" transform="translate(125,0)"/><use xmlns="http://www.w3.org/2000/svg" xmlns:xlink="http://www.w3.org/1999/xlink" xlink:href="#c1" transform="translate(125,25)"/><use xmlns="http://www.w3.org/2000/svg" xmlns:xlink="http://www.w3.org/1999/xlink" xlink:href="#b2" transform="translate(150,0)"/><use xmlns="http://www.w3.org/2000/svg" xmlns:xlink="http://www.w3.org/1999/xlink" xlink:href="#b1" transform="translate(150,25)"/><use xmlns="http://www.w3.org/2000/svg" xmlns:xlink="http://www.w3.org/1999/xlink" xlink:href="#a2" transform="translate(175,0)"/><use xmlns="http://www.w3.org/2000/svg" xmlns:xlink="http://www.w3.org/1999/xlink" xlink:href="#a1" transform="translate(175,25)"/><use xmlns="http://www.w3.org/2000/svg" xmlns:xlink="http://www.w3.org/1999/xlink" xlink:href="#i1" transform="translate(191,0)"/><use xmlns="http://www.w3.org/2000/svg" xmlns:xlink="http://www.w3.org/1999/xlink" xlink:href="#i2" transform="translate(191,0)"/></svg>