<?xml version="1.0" encoding="utf-8"?><!--Generator: Adobe Illustrator 17.1.0, SVG Export Plug-In . SVG Version: 6.00 Build 0)--><!DOCTYPE svg PUBLIC "-//W3C//DTD SVG 1.1//EN" "http://www.w3.org/Graphics/SVG/1.1/DTD/svg11.dtd"><svg version="1.1" id="Layer_1" xmlns="http://www.w3.org/2000/svg" xmlns:xlink="http://www.w3.org/1999/xlink" x="0px" y="0px" width="120" height="80" viewBox="0 0 120 80" enable-background="new 0 0 120 80" xml:space="preserve"><defs><g id="b4"><g><polygon fill="#3E4B59" points="10,0 10,5 15,5 		"/><polygon fill="#D14967" points="18.2,7.3 12.3,16.4 12.5,18 13.9,17.4 19.8,8.3 		"/></g><path fill="#3E4B59" d="M15,6h-5C9.5,6,9,5.5,9,5V0H1C0.5,0,0,0.5,0,1v18c0,0.5,0.5,1,1,1h13c0.5,0,1-0.5,1-1v-1.7l-0.5,0.8
			l-2.8,1.1l-0.3-3l3.5-5.5V6z"/></g><g id="a4"><polygon fill="#3E4B59" points="10,0 10,5 15,5 	"/><g><path fill="#3E4B59" d="M13.1,19.5l-1.9-1.8l2.4-2.4l-2.4-2.4l1.9-1.8L15,13V6h-5C9.5,6,9,5.5,9,5V0H1C0.5,0,0,0.5,0,1v18
				c0,0.5,0.5,1,1,1h13c0.5,0,1-0.5,1-1v-1.4L13.1,19.5z"/></g><polygon fill="#D14967" points="15.5,16.1 17.7,18.4 18.6,17.5 16.3,15.3 18.6,13 17.7,12.2 15.5,14.4 13.1,12.1 12.2,12.9
			14.6,15.3 12.2,17.7 13.1,18.5 	"/></g><g id="d3"><g><polygon fill="#3E4B59" points="10,0 10,5 15,5 		"/><polygon fill="#D14967" points="18.2,7.3 12.3,16.4 12.5,18 13.9,17.4 19.8,8.3 		"/></g><path fill="#3E4B59" d="M15,6h-5C9.5,6,9,5.5,9,5V0H1C0.5,0,0,0.5,0,1v18c0,0.5,0.5,1,1,1h13c0.5,0,1-0.5,1-1v-1.7l-0.5,0.8
			l-2.8,1.1l-0.3-3l3.5-5.5V6z M5.9,16.1l-1.4-1.4L2.9,13l1.3-1.3l1.7,1.7l4.6-4.6l1.3,1.3L5.9,16.1z"/></g><g id="c3"><polygon fill="#3AC7F5" points="10,0 10,5 15,5 	"/><polygon fill="#D14967" points="18.2,7.3 12.3,16.4 12.5,18 13.9,17.4 19.8,8.3 	"/><path fill="#3AC7F5" d="M14.5,18.1l-2.8,1.1l-0.3-3l3.5-5.5V6h-5C9.5,6,9,5.5,9,5V0H1C0.5,0,0,0.5,0,1v18c0,0.5,0.5,1,1,1h13
			c0.5,0,1-0.5,1-1v-1.7L14.5,18.1z"/></g><g id="b3"><polygon fill="#D14967" points="10,0 10,5 15,5 	"/><polygon fill="#D14967" points="18.2,7.3 12.3,16.4 12.5,18 13.9,17.4 19.8,8.3 	"/><path fill="#D14967" d="M14.5,18.1l-2.8,1.1l-0.3-3l3.5-5.5V6h-5C9.5,6,9,5.5,9,5V0H1C0.5,0,0,0.5,0,1v18c0,0.5,0.5,1,1,1h13
			c0.5,0,1-0.5,1-1v-1.7L14.5,18.1z"/></g><g id="a3"><polygon fill="#F9BF3A" points="10,0 10,5 15,5 	"/><polygon fill="#D14967" points="18.2,7.3 12.3,16.4 12.5,18 13.9,17.4 19.8,8.3 	"/><path fill="#F9BF3A" d="M14.5,18.1l-2.8,1.1l-0.3-3l3.5-5.5V6h-5C9.5,6,9,5.5,9,5V0H1C0.5,0,0,0.5,0,1v18c0,0.5,0.5,1,1,1h13
			c0.5,0,1-0.5,1-1v-1.7L14.5,18.1z"/></g><g id="e2"><polygon fill="#3E4B59" points="10,0 10,5 15,5 	"/><path fill="#3E4B59" d="M10,6C9.5,6,9,5.5,9,5V0H1C0.5,0,0,0.5,0,1v18c0,0.5,0.5,1,1,1h13c0.5,0,1-0.5,1-1V6H10z M5.5,10.5L7,12.1
			V7h1v5.1l1.7-1.6l0.7,0.6l-2.7,2.8l-2.8-2.8L5.5,10.5z M12,17H3v-2h1v1h7v-1h1V17z"/></g><g id="d2"><path fill="#3E4B59" d="M10.4,0H1C0.5,0,0,0.5,0,1v18c0,0.5,0.5,1,1,1h13c0.5,0,1-0.5,1-1V4.7L10.4,0z M14,18c0,0.5-0.5,1-1,1H2
		c-0.5,0-1-0.5-1-1V2c0-0.5,0.5-1,1-1h7.1c0,0,0,4.9,0,4.9l4.9,0V18z M10,5V1l4,4H10z"/></g><g id="c2"><polygon fill="#3E4B59" points="10,0 10,5 15,5 	"/><path fill="#3E4B59" d="M10,6C9.5,6,9,5.5,9,5V0H1C0.5,0,0,0.5,0,1v18c0,0.5,0.5,1,1,1h13c0.5,0,1-0.5,1-1V6H10z M5.9,16.1
			l-1.4-1.4L2.9,13l1.3-1.3l1.7,1.7l4.6-4.6l1.3,1.3L5.9,16.1z"/></g><g id="b2"><polygon fill="#3E4B59" points="10,0 10,5 15,5 	"/><path fill="#3E4B59" d="M10,6C9.5,6,9,5.5,9,5V0H1C0.5,0,0,0.5,0,1v18c0,0.5,0.5,1,1,1h13c0.5,0,1-0.5,1-1V6H10z"/></g><g id="a2"><polygon fill="#3E4B59" points="10,0 10,5 15,5 	"/><path fill="#3E4B59" d="M10,6C9.5,6,9,5.5,9,5V0H1C0.5,0,0,0.5,0,1v18c0,0.5,0.5,1,1,1h13c0.5,0,1-0.5,1-1V6H10z M11.1,14.5
			l-1.4,1.3l-2.3-2.2L5.1,16l-1.4-1.3l2.4-2.4L3.7,9.9l1.4-1.3l2.4,2.4l2.3-2.2l1.4,1.3l-2.3,2.2L11.1,14.5z"/></g><g id="f1"><polygon fill="#3AC7F5" points="10,0 10,5 15,5 	"/><g><path fill="#3AC7F5" d="M13.1,19.5l-1.9-1.8l2.4-2.4l-2.4-2.4l1.9-1.8L15,13V6h-5C9.5,6,9,5.5,9,5V0H1C0.5,0,0,0.5,0,1v18
				c0,0.5,0.5,1,1,1h13c0.5,0,1-0.5,1-1v-1.4L13.1,19.5z"/></g><polygon fill="#D14967" points="15.5,16.1 17.7,18.4 18.6,17.5 16.3,15.3 18.6,13 17.7,12.2 15.5,14.4 13.1,12.1 12.2,12.9
			14.6,15.3 12.2,17.7 13.1,18.5 	"/></g><g id="e1"><polygon fill="#D14967" points="10,0 10,5 15,5 	"/><g><path fill="#D14967" d="M13.1,19.5l-1.9-1.8l2.4-2.4l-2.4-2.4l1.9-1.8L15,13V6h-5C9.5,6,9,5.5,9,5V0H1C0.5,0,0,0.5,0,1v18
				c0,0.5,0.5,1,1,1h13c0.5,0,1-0.5,1-1v-1.4L13.1,19.5z"/></g><polygon fill="#D14967" points="15.5,16.1 17.7,18.4 18.6,17.5 16.3,15.3 18.6,13 17.7,12.2 15.5,14.4 13.1,12.1 12.2,12.9
			14.6,15.3 12.2,17.7 13.1,18.5 	"/></g><g id="d1"><polygon fill="#F9BF3A" points="10,0 10,5 15,5 	"/><g><path fill="#F9BF3A" d="M13.1,19.5l-1.9-1.8l2.4-2.4l-2.4-2.4l1.9-1.8L15,13V6h-5C9.5,6,9,5.5,9,5V0H1C0.5,0,0,0.5,0,1v18
				c0,0.5,0.5,1,1,1h13c0.5,0,1-0.5,1-1v-1.4L13.1,19.5z"/></g><polygon fill="#D14967" points="15.5,16.1 17.7,18.4 18.6,17.5 16.3,15.3 18.6,13 17.7,12.2 15.5,14.4 13.1,12.1 12.2,12.9
			14.6,15.3 12.2,17.7 13.1,18.5 	"/></g><g id="c1"><polygon fill="#3AC7F5" points="10,0 10,5 15,5 	"/><path fill="#3AC7F5" d="M9,5V0H1C0.5,0,0,0.5,0,1v18c0,0.5,0.5,1,1,1h13c0.5,0,1-0.5,1-1V6h-5C9.5,6,9,5.5,9,5z"/></g><g id="b1"><polygon fill="#D14967" points="10,0 10,5 15,5 	"/><path fill="#D14967" d="M9,5V0H1C0.5,0,0,0.5,0,1v18c0,0.5,0.5,1,1,1h13c0.5,0,1-0.5,1-1V6h-5C9.5,6,9,5.5,9,5z"/></g><!--<g> <polygon fill="#3E4B59" points="690.7,46 646,46 646,0.6 "/> <path fill="#3E4B59" d="M645.4,56c-5,0-9.4-5.2-9.4-10.2V1c-6,0-3.7,0-8.7,0H564c-5,0-9,3.7-9,8.6v153.7c0,5,4.1,8.6,9,8.6h117.6 c5,0,9.4-3.7,9.4-8.6V63.9c0-5,0-1.9,0-7.9H645.4z M607.1,95l13.9,13.7V65h8v43.1l13.9-14l5.5,5.5l-23.9,23.9l-22.9-22.9L607.1,95z M666,145h-84v-20h8v13h68v-13h8V145z"/> </g>--><g id="a1"><polygon fill="#F9BF3A" points="10,0 10,5 15,5 	"/><path fill="#F9BF3A" d="M9,5V0H1C0.5,0,0,0.5,0,1v18c0,0.5,0.5,1,1,1h13c0.5,0,1-0.5,1-1V6h-5C9.5,6,9,5.5,9,5z"/></g></defs><use xmlns="http://www.w3.org/2000/svg" xmlns:xlink="http://www.w3.org/1999/xlink" xlink:href="#a1" transform="translate(0,0)"/><use xmlns="http://www.w3.org/2000/svg" xmlns:xlink="http://www.w3.org/1999/xlink" xlink:href="#b1" transform="translate(20,0)"/><use xmlns="http://www.w3.org/2000/svg" xmlns:xlink="http://www.w3.org/1999/xlink" xlink:href="#c1" transform="translate(40,0)"/><use xmlns="http://www.w3.org/2000/svg" xmlns:xlink="http://www.w3.org/1999/xlink" xlink:href="#d1" transform="translate(60,0)"/><use xmlns="http://www.w3.org/2000/svg" xmlns:xlink="http://www.w3.org/1999/xlink" xlink:href="#e1" transform="translate(80,0)"/><use xmlns="http://www.w3.org/2000/svg" xmlns:xlink="http://www.w3.org/1999/xlink" xlink:href="#f1" transform="translate(100,0)"/><use xmlns="http://www.w3.org/2000/svg" xmlns:xlink="http://www.w3.org/1999/xlink" xlink:href="#a2" transform="translate(0,20)"/><use xmlns="http://www.w3.org/2000/svg" xmlns:xlink="http://www.w3.org/1999/xlink" xlink:href="#b2" transform="translate(20,20)"/><use xmlns="http://www.w3.org/2000/svg" xmlns:xlink="http://www.w3.org/1999/xlink" xlink:href="#c2" transform="translate(40,20)"/><use xmlns="http://www.w3.org/2000/svg" xmlns:xlink="http://www.w3.org/1999/xlink" xlink:href="#d2" transform="translate(60,20)"/><use xmlns="http://www.w3.org/2000/svg" xmlns:xlink="http://www.w3.org/1999/xlink" xlink:href="#e2" transform="translate(80,20)"/><use xmlns="http://www.w3.org/2000/svg" xmlns:xlink="http://www.w3.org/1999/xlink" xlink:href="#a3" transform="translate(0,40)"/><use xmlns="http://www.w3.org/2000/svg" xmlns:xlink="http://www.w3.org/1999/xlink" xlink:href="#b3" transform="translate(20,40)"/><use xmlns="http://www.w3.org/2000/svg" xmlns:xlink="http://www.w3.org/1999/xlink" xlink:href="#c3" transform="translate(40,40)"/><use xmlns="http://www.w3.org/2000/svg" xmlns:xlink="http://www.w3.org/1999/xlink" xlink:href="#d3" transform="translate(60,40)"/><use xmlns="http://www.w3.org/2000/svg" xmlns:xlink="http://www.w3.org/1999/xlink" xlink:href="#a4" transform="translate(0,60)"/><use xmlns="http://www.w3.org/2000/svg" xmlns:xlink="http://www.w3.org/1999/xlink" xlink:href="#b4" transform="translate(20,60)"/></svg>