<?xml version="1.0" encoding="utf-8"?><!--Generator: Adobe Illustrator 20.1.0, SVG Export Plug-In . SVG Version: 6.00 Build 0)--><svg version="1.1" id="Layer_1" xmlns="http://www.w3.org/2000/svg" xmlns:xlink="http://www.w3.org/1999/xlink" x="0px" y="0px" width="360" height="20" viewBox="0 0 360 20" style="enable-background:new 0 0 360 20;" xml:space="preserve"><style type="text/css">.st0{fill:#FFFFFF;}</style><defs><g id="a"><path class="st0" d="M1.9,1c0,0.1,0,2.1,0,2.3h16.3c0-0.2,0-2.1,0-2.3"/><path class="st0" d="M2.4,4.2v11.6c0,0.3,0.2,0.5,0.5,0.5h6.8c-0.7,0.1-1.2,0.8-1.2,1.5c0,0.8,0.7,1.5,1.5,1.5s1.5-0.7,1.5-1.5
	  c0-0.7-0.5-1.4-1.2-1.5h6.8c0.3,0,0.5-0.2,0.5-0.5V4.2H2.4z M4.2,7h5.5v1.3H4.2V7z M10.5,17.8c0,0.3-0.2,0.5-0.5,0.5
	  s-0.5-0.2-0.5-0.5c0-0.3,0.2-0.5,0.5-0.5S10.5,17.6,10.5,17.8z M12.5,12.9H4.2v-1.3h8.2V12.9z M14.8,10.6H4.2V9.3h10.5V10.6z"/><path d="M13.9,7"/></g><g id="b"><polygon class="st0" points="17.1,5.6 12.9,5.6 12.9,1.6 	"/><path class="st0" d="M11.9,6.6v-5H3.3v16.6h13.8V6.6H11.9z M6.1,12.3c0.7-1.5,2.2-2.6,4-2.6c0.5,0,0.9,0.1,1.3,0.2l-0.7,0.7
		c-0.2-0.1-0.4-0.1-0.6-0.1c-1,0-1.8,0.8-1.8,1.8c0,0.2,0,0.4,0.1,0.6L7.4,14c-0.5-0.4-1-1-1.3-1.6C6.1,12.4,6.1,12.3,6.1,12.3z
		 M10.2,11.2L9,12.4c0,0,0,0,0-0.1C9,11.7,9.5,11.2,10.2,11.2C10.2,11.2,10.2,11.2,10.2,11.2z M7.7,15.4c-0.1,0.1-0.2,0.1-0.3,0.1
		c-0.1,0-0.2,0-0.3-0.1c-0.2-0.2-0.2-0.4,0-0.6l0.5-0.5l0.9-0.9l4-4c0.1-0.1,0.2-0.1,0.3-0.1c0.1,0,0.2,0,0.3,0.1
		c0.2,0.2,0.2,0.4,0,0.6l-0.5,0.5l-0.9,0.9l-0.5,0.5l-1.5,1.5l-0.5,0.5l-0.7,0.7L7.7,15.4z M11.3,12.4c0,0.6-0.5,1.2-1.2,1.2
		c0,0,0,0-0.1,0L11.3,12.4C11.3,12.3,11.3,12.3,11.3,12.4z M14.2,12.4c-0.7,1.5-2.2,2.6-4,2.6c-0.5,0-0.9-0.1-1.3-0.2l0.7-0.7
		c0.2,0.1,0.4,0.1,0.6,0.1c1,0,1.8-0.8,1.8-1.8c0-0.2,0-0.4-0.1-0.6l1.1-1.1c0.5,0.4,1,1,1.3,1.6C14.2,12.3,14.2,12.4,14.2,12.4z"/></g><g id="c"><polygon class="st0" points="8.5,4.6 8.5,2.2 2,2.2 2,7.1 18,7.1 18,4.6  "/><rect x="4" y="13.8" class="st0" width="1.5" height="1.5"/><path class="st0" d="M2,17.3h16V8H2V17.3z M7.2,9.6h9.4v0.8H7.2V9.6z M7.2,11.4h9.4v0.8H7.2V11.4z M7.2,13.2H13V14H7.2V13.2z
   M7.2,14.9H11v0.8H7.2V14.9z M6,15.8H3.5v-2.5H6V15.8z M3.5,9.6h2.5V12H3.5V9.6z"/></g><path id="d" class="st0" d="M18.5,6.7c0-0.7-0.1-1.4-0.4-2.1c-0.3-0.6-0.7-1.2-1.2-1.7c-0.5-0.5-1.1-0.9-1.7-1.2c-0.7-0.3-1.4-0.4-2.1-0.4
 c-0.7,0-1.4,0.1-2.1,0.4C10.3,2,9.7,2.4,9.2,2.9C8.8,3.4,8.4,4,8.1,4.6C7.8,5.3,7.7,6,7.7,6.7c0,0.9,0.2,1.8,0.7,2.6l-6.8,6.8
 l2.1,2.1l1.3-1.2l1.6,1.6l2.1-2.2L7,14.9l3.4-3.4c0.8,0.4,1.7,0.7,2.6,0.7c0.7,0,1.4-0.1,2.1-0.4c0.6-0.3,1.2-0.7,1.7-1.2
 c0.5-0.5,0.9-1.1,1.2-1.7C18.4,8.2,18.5,7.5,18.5,6.7L18.5,6.7z M15,8.6c-0.5,0.5-1.2,0.8-1.9,0.8c-0.7,0-1.4-0.3-1.9-0.8
 c-0.5-0.5-0.8-1.2-0.8-1.9c0-0.7,0.3-1.4,0.8-1.9C11.7,4.3,12.4,4,13.1,4c0.7,0,1.4,0.3,1.9,0.8c0.5,0.5,0.8,1.2,0.8,1.9
 C15.8,7.5,15.5,8.1,15,8.6L15,8.6z M15,8.6"/><g id="e"><path class="st0" d="M5.5,3.7C5.2,2.7,4.3,2,3.2,2C1.9,2,0.9,3,0.9,4.3c0,1.3,1.1,2.4,2.4,2.4C4.3,6.7,5.2,6,5.5,5h13.7V3.7H5.5z"/><path class="st0" d="M10.1,7.6c-1.1,0-2,0.7-2.3,1.7H0.9v1.3h6.9c0.3,1,1.2,1.7,2.3,1.7s2-0.7,2.3-1.7h6.8V9.3h-6.8
	  C12,8.4,11.1,7.6,10.1,7.6z"/><path class="st0" d="M16.8,13.3c-1.1,0-2,0.7-2.3,1.7H0.9v1.3h13.6c0.3,1,1.2,1.7,2.3,1.7c1.3,0,2.4-1.1,2.4-2.4
	  S18.1,13.3,16.8,13.3z"/></g><g id="f"><rect x="1.7" y="16.9" class="st0" width="16.5" height="1"/><rect x="15.2" y="2.1" class="st0" width="3" height="13.5"/><rect x="10.7" y="6.4" class="st0" width="3" height="9.2"/><rect x="6.2" y="11.2" class="st0" width="3" height="4.4"/><rect x="1.7" y="7.9" class="st0" width="3" height="7.7"/></g><g id="g"><polygon class="st0" points="14.2,16.4 16,14.6 16,18.2 17.2,18.2 17.2,14.6 19,16.4 19.8,15.7 16.6,12.4 13.4,15.7  "/><g><rect x="7.6" y="7.3" class="st0" width="9.2" height="1.1"/><rect x="7.6" y="9.6" class="st0" width="9.2" height="1.1"/><rect x="7.6" y="11.9" class="st0" width="4.8" height="1.1"/><rect x="7.6" y="14.2" class="st0" width="4.8" height="1.1"/><rect x="2.8" y="7.3" class="st0" width="3.2" height="3.2"/><rect x="2.8" y="12.2" class="st0" width="3.2" height="3.2"/></g><path class="st0" d="M12.5,16.8h-0.4c0,0,0,0,0,0H1.4V5.9h16.9V8v3.1v0.2h1.2V1.6H0.2v16.7h12.3V16.8z M17.5,3.1
	  c0.4,0,0.7,0.3,0.7,0.7s-0.3,0.7-0.7,0.7s-0.7-0.3-0.7-0.7S17.1,3.1,17.5,3.1z M15.4,3.1c0.4,0,0.7,0.3,0.7,0.7s-0.3,0.7-0.7,0.7
	  c-0.4,0-0.7-0.3-0.7-0.7S15,3.1,15.4,3.1z M13.2,3.1c0.4,0,0.7,0.3,0.7,0.7s-0.3,0.7-0.7,0.7s-0.7-0.3-0.7-0.7S12.8,3.1,13.2,3.1z"/></g><g id="h"><g><path class="st0" d="M15.4,4.4c0.3-0.4,0.3-1-0.1-1.3l-2-1.6c-0.2-0.2-0.5-0.2-0.7-0.2s-0.5,0.1-0.7,0.3l-1.3,1.6L14.1,6L15.4,4.4
			z"/><polygon class="st0" points="13.5,6.7 10,3.9 2.1,13.4 5.6,16.2 		"/><polygon class="st0" points="1.5,14.1 1.2,18 5,17 		"/><polygon class="st0" points="6,17.7 1.3,18.7 19.1,18.7 19.1,17.7 		"/></g></g><g id="i"><g><path class="st0" d="M9.9,5.1c0.5,0,1-0.2,1.4-0.6c0.4-0.4,0.6-0.8,0.6-1.4c0-0.5-0.2-1-0.6-1.4c-0.4-0.4-0.8-0.6-1.4-0.6
			s-1,0.2-1.4,0.6C8.1,2.1,7.9,2.6,7.9,3.1c0,0.5,0.2,1,0.6,1.4C8.9,4.9,9.3,5.1,9.9,5.1L9.9,5.1z"/><path class="st0" d="M13.8,7.3c0-0.2,0-0.4-0.1-0.6c0-0.2-0.1-0.4-0.1-0.6c-0.1-0.2-0.1-0.4-0.2-0.5c-0.1-0.2-0.2-0.3-0.3-0.5
			c-0.1-0.1-0.3-0.2-0.5-0.3c-0.2-0.1-0.4-0.1-0.6-0.1c0,0-0.1,0-0.2,0.1c-0.1,0.1-0.3,0.2-0.4,0.3c-0.2,0.1-0.4,0.2-0.6,0.3
			c-0.2,0.1-0.5,0.1-0.7,0.1c-0.2,0-0.5,0-0.7-0.1C8.9,5.2,8.7,5.1,8.5,5C8.4,4.9,8.2,4.9,8.1,4.8C8,4.7,7.9,4.7,7.9,4.7
			c-0.2,0-0.4,0-0.6,0.1C7.1,4.8,6.9,4.9,6.8,5.1C6.6,5.2,6.5,5.3,6.4,5.5C6.3,5.7,6.2,5.9,6.2,6.1C6.1,6.2,6.1,6.5,6,6.7
			C6,6.9,6,7.1,6,7.3c0,0.2,0,0.4,0,0.6c0,0.4,0.1,0.8,0.4,1.1C6.6,9.2,7,9.3,7.4,9.3h4.9c0.5,0,0.8-0.1,1.1-0.4
			c0.3-0.3,0.4-0.6,0.4-1.1C13.8,7.7,13.8,7.5,13.8,7.3L13.8,7.3z"/></g><g><path class="st0" d="M15.3,14.6c0.5,0,1-0.2,1.4-0.6c0.4-0.4,0.6-0.8,0.6-1.4c0-0.5-0.2-1-0.6-1.4c-0.4-0.4-0.8-0.6-1.4-0.6
			s-1,0.2-1.4,0.6c-0.4,0.4-0.6,0.8-0.6,1.4c0,0.5,0.2,1,0.6,1.4C14.3,14.5,14.7,14.6,15.3,14.6L15.3,14.6z"/><path class="st0" d="M19.2,16.9c0-0.2,0-0.4-0.1-0.6c0-0.2-0.1-0.4-0.1-0.6c-0.1-0.2-0.1-0.4-0.2-0.5c-0.1-0.2-0.2-0.3-0.3-0.5
			c-0.1-0.1-0.3-0.2-0.5-0.3c-0.2-0.1-0.4-0.1-0.6-0.1c0,0-0.1,0-0.2,0.1c-0.1,0.1-0.3,0.2-0.4,0.3c-0.2,0.1-0.4,0.2-0.6,0.3
			C15.7,15,15.5,15,15.3,15c-0.2,0-0.5,0-0.7-0.1c-0.2-0.1-0.4-0.2-0.6-0.3c-0.2-0.1-0.3-0.2-0.4-0.3c-0.1-0.1-0.2-0.1-0.2-0.1
			c-0.2,0-0.4,0-0.6,0.1c-0.2,0.1-0.3,0.2-0.5,0.3c-0.1,0.1-0.2,0.3-0.3,0.5c-0.1,0.2-0.2,0.4-0.2,0.5c-0.1,0.2-0.1,0.4-0.1,0.6
			c0,0.2-0.1,0.4-0.1,0.6c0,0.2,0,0.4,0,0.6c0,0.4,0.1,0.8,0.4,1.1c0.3,0.3,0.6,0.4,1.1,0.4h4.9c0.5,0,0.8-0.1,1.1-0.4
			c0.3-0.3,0.4-0.6,0.4-1.1C19.2,17.3,19.2,17.1,19.2,16.9L19.2,16.9z"/></g><g><path class="st0" d="M4.6,14.6c0.5,0,1-0.2,1.4-0.6c0.4-0.4,0.6-0.8,0.6-1.4c0-0.5-0.2-1-0.6-1.4c-0.4-0.4-0.8-0.6-1.4-0.6
			s-1,0.2-1.4,0.6c-0.4,0.4-0.6,0.8-0.6,1.4c0,0.5,0.2,1,0.6,1.4C3.6,14.5,4.1,14.6,4.6,14.6L4.6,14.6z"/><path class="st0" d="M8.5,16.9c0-0.2,0-0.4-0.1-0.6c0-0.2-0.1-0.4-0.1-0.6c-0.1-0.2-0.1-0.4-0.2-0.5c-0.1-0.2-0.2-0.3-0.3-0.5
			c-0.1-0.1-0.3-0.2-0.5-0.3c-0.2-0.1-0.4-0.1-0.6-0.1c0,0-0.1,0-0.2,0.1c-0.1,0.1-0.3,0.2-0.4,0.3c-0.2,0.1-0.4,0.2-0.6,0.3
			C5.1,15,4.9,15,4.6,15c-0.2,0-0.5,0-0.7-0.1c-0.2-0.1-0.4-0.2-0.6-0.3c-0.2-0.1-0.3-0.2-0.4-0.3c-0.1-0.1-0.2-0.1-0.2-0.1
			c-0.2,0-0.4,0-0.6,0.1c-0.2,0.1-0.3,0.2-0.5,0.3c-0.1,0.1-0.2,0.3-0.3,0.5c-0.1,0.2-0.2,0.4-0.2,0.5c-0.1,0.2-0.1,0.4-0.1,0.6
			c0,0.2-0.1,0.4-0.1,0.6c0,0.2,0,0.4,0,0.6c0,0.4,0.1,0.8,0.4,1.1c0.3,0.3,0.6,0.4,1.1,0.4h4.9c0.5,0,0.8-0.1,1.1-0.4
			c0.3-0.3,0.4-0.6,0.4-1.1C8.6,17.3,8.6,17.1,8.5,16.9L8.5,16.9z"/></g><g><path class="st0" d="M12.1,13.3c-0.1,0-0.3,0-0.4-0.1L10,11.4l-1.7,1.7c-0.2,0.2-0.5,0.2-0.7,0s-0.2-0.5,0-0.7L10,10l2.4,2.4
			c0.2,0.2,0.2,0.5,0,0.7C12.4,13.2,12.2,13.3,12.1,13.3z"/></g></g><g id="j"><path class="st0" d="M4.3,6.7C5,6.7,5.6,6.5,6.1,6c0.5-0.5,0.7-1.1,0.7-1.8c0-0.7-0.2-1.3-0.7-1.8C5.6,2,5,1.7,4.3,1.7
		C3.6,1.7,3,2,2.5,2.5C2,2.9,1.8,3.5,1.8,4.2C1.8,4.9,2,5.5,2.5,6C3,6.5,3.6,6.7,4.3,6.7L4.3,6.7z M4.3,6.7"/><path class="st0" d="M7.3,10.7c0.7,0.7,1.6,1.1,2.7,1.1c1,0,1.9-0.4,2.7-1.1C13.3,9.9,13.7,9,13.7,8s-0.4-1.9-1.1-2.7
		C11.9,4.6,11,4.2,9.9,4.2c-1,0-1.9,0.4-2.7,1.1C6.5,6.1,6.2,7,6.2,8S6.5,9.9,7.3,10.7L7.3,10.7z M7.3,10.7"/><path class="st0" d="M15.6,6.7c0.7,0,1.3-0.2,1.8-0.7c0.5-0.5,0.7-1.1,0.7-1.8c0-0.7-0.2-1.3-0.7-1.8c-0.5-0.5-1.1-0.7-1.8-0.7
		c-0.7,0-1.3,0.2-1.8,0.7c-0.5,0.5-0.7,1.1-0.7,1.8c0,0.7,0.2,1.3,0.7,1.8C14.3,6.5,14.9,6.7,15.6,6.7L15.6,6.7z M15.6,6.7"/><path class="st0" d="M18.1,6.7c0,0-0.2,0.1-0.4,0.2c-0.2,0.1-0.6,0.3-1,0.4c-0.4,0.1-0.8,0.2-1.2,0.2c-0.4,0-0.9-0.1-1.3-0.2
		c0,0.2,0,0.5,0,0.6c0,0.9-0.3,1.7-0.8,2.5c1.1,0,1.9,0.5,2.6,1.3h1.3c0.5,0,1-0.1,1.4-0.4c0.4-0.3,0.5-0.7,0.5-1.2
		C19.4,7.9,18.9,6.7,18.1,6.7L18.1,6.7z M18.1,6.7"/><path class="st0" d="M16.7,14.7c-0.1-0.4-0.2-0.7-0.3-1.1c-0.1-0.3-0.2-0.6-0.4-1c-0.2-0.3-0.4-0.6-0.6-0.8
		c-0.2-0.2-0.5-0.4-0.8-0.5c-0.3-0.1-0.7-0.2-1.1-0.2c-0.1,0-0.2,0.1-0.4,0.2c-0.2,0.1-0.5,0.3-0.7,0.5c-0.3,0.2-0.6,0.3-1,0.5
		c-0.4,0.1-0.9,0.2-1.3,0.2c-0.4,0-0.9-0.1-1.3-0.2c-0.4-0.1-0.8-0.3-1-0.5c-0.3-0.2-0.5-0.3-0.7-0.5c-0.2-0.1-0.4-0.2-0.4-0.2
		c-0.4,0-0.8,0.1-1.1,0.2c-0.3,0.1-0.6,0.3-0.8,0.5c-0.2,0.2-0.4,0.5-0.6,0.8c-0.2,0.3-0.3,0.6-0.4,1c-0.1,0.3-0.2,0.7-0.3,1.1
		c-0.1,0.4-0.1,0.7-0.1,1.1c0,0.3,0,0.7,0,1c0,0.8,0.2,1.4,0.7,1.9c0.5,0.5,1.1,0.7,1.9,0.7h8.6c0.8,0,1.4-0.2,1.9-0.7
		c0.5-0.5,0.7-1.1,0.7-1.9c0-0.3,0-0.7,0-1C16.8,15.4,16.7,15,16.7,14.7L16.7,14.7z M16.7,14.7"/><path class="st0" d="M6.3,10.5C5.8,9.7,5.5,8.9,5.5,8c0-0.2,0-0.4,0-0.6C5.2,7.5,4.7,7.6,4.3,7.6c-0.4,0-0.8-0.1-1.2-0.2
		c-0.4-0.1-0.7-0.3-1-0.4C1.9,6.8,1.8,6.7,1.7,6.7c-0.8,0-1.2,1.2-1.2,3.5c0,0.5,0.2,0.9,0.5,1.2c0.4,0.3,0.8,0.4,1.4,0.4h1.3
		C4.4,11,5.3,10.5,6.3,10.5L6.3,10.5z M6.3,10.5"/></g><g id="k"><path class="st0" d="M9.9,9.6c1.1,0,2.1-0.4,2.9-1.2C13.6,7.6,14,6.7,14,5.5c0-1.1-0.4-2.1-1.2-2.9C12,1.8,11.1,1.4,9.9,1.4
		S7.8,1.8,7,2.6C6.2,3.4,5.8,4.4,5.8,5.5c0,1.1,0.4,2.1,1.2,2.9C7.8,9.2,8.8,9.6,9.9,9.6L9.9,9.6z"/><path class="st0" d="M18.2,14.3c0-0.4-0.1-0.8-0.2-1.3c-0.1-0.5-0.2-0.9-0.3-1.3c-0.1-0.4-0.3-0.8-0.5-1.1c-0.2-0.4-0.5-0.7-0.7-1
		c-0.3-0.3-0.6-0.5-1-0.6c-0.4-0.2-0.8-0.2-1.3-0.2c-0.1,0-0.2,0.1-0.5,0.3c-0.3,0.2-0.5,0.4-0.9,0.6c-0.3,0.2-0.7,0.4-1.3,0.6
		c-0.5,0.2-1,0.3-1.6,0.3c-0.5,0-1-0.1-1.6-0.3C7.8,10,7.4,9.8,7.1,9.6C6.8,9.4,6.5,9.2,6.2,9.1C6,8.9,5.8,8.8,5.7,8.8
		C5.3,8.8,4.8,8.9,4.4,9C4,9.2,3.7,9.4,3.4,9.7c-0.3,0.3-0.5,0.6-0.7,1c-0.2,0.4-0.4,0.8-0.5,1.1C2.1,12.2,2,12.6,1.9,13
		c-0.1,0.5-0.1,0.9-0.2,1.3c0,0.4,0,0.8,0,1.2c0,0.9,0.3,1.7,0.9,2.2c0.6,0.5,1.3,0.8,2.3,0.8h10.3c0.9,0,1.7-0.3,2.3-0.8
		c0.6-0.5,0.9-1.3,0.9-2.2C18.2,15.1,18.2,14.7,18.2,14.3L18.2,14.3z"/></g><g id="l"><path class="st0" d="M18.4,7.8v-6h-6v2h-5v-2h-6v6h2v5h-2v6h6v-2h5v2h6v-6h-2v-5H18.4z M17.4,13.8v4h-4v-4H17.4z M14.4,12.8
		h-2v2h-5v-2h-2v-5h2v-2h5v2h2V12.8z"/></g><g id="m"><polygon class="st0" points="20,9.5 20,2.5 13,2.5 13,5.5 10,5.5 9,5.5 9,6.5 9,11.5 6,14.5 4,14.5 4,9.5 7,9.5 7,2.5 0,2.5 0,9.5
  3,9.5 3,14.5 3,15.5 7,15.5 10,18.5 14,14.5 10,10.5 10,6.5 13,6.5 13,9.5 16,9.5 16,12.5 14.4,12.5 16.6,14.8 18.8,12.5 17,12.5
  17,9.5  "/></g><g id="n"><polygon class="st0" points="16.6,4.9 14.6,3.3 14.6,4.9 1.3,4.9 1.3,8.1 14.6,8.1 14.6,9.7 16.6,8.1 18.7,6.5 "/><polygon class="st0" points="3.4,15.4 5.4,17 5.4,15.4 18.7,15.4 18.7,12.2 5.4,12.2 5.4,10.6 3.4,12.2 1.3,13.8 "/></g><g id="o"><path class="st0" d="M18.2,0.1h-7.6c-0.3,0-0.5,0.2-0.5,0.5v3.3H1.9c-0.3,0-0.6,0.3-0.6,0.6v14.8c0,0.3,0.3,0.6,0.6,0.6h12.5
	  c0.3,0,0.6-0.3,0.6-0.6V8.4h3.2c0.3,0,0.5-0.2,0.5-0.5V0.6C18.7,0.3,18.5,0.1,18.2,0.1L18.2,0.1z M11.1,1.2h2.7v1.4h-2.7V1.2z
	   M11.1,3.6h2.7V5h-2.7V3.6z M11.1,6h2.7v1.4h-2.7V6z M13.8,18.7H2.5V5.1h7.6v2.6L8.4,9.4L7.8,8.8C7.7,8.7,7.6,8.7,7.5,8.7
	  c-0.1,0-0.2,0.1-0.2,0.2l-0.9,3.2c0,0.1,0,0.2,0.1,0.2c0,0,0.1,0.1,0.2,0.1c0,0,0,0,0.1,0l3.2-0.9c0.1,0,0.2-0.1,0.2-0.2
	  c0-0.1,0-0.2-0.1-0.2l-0.6-0.6l2.1-2.1h2.2V18.7z M17.7,7.4h-2.7V6h2.7V7.4z M17.7,5h-2.7V3.6h2.7V5z M17.7,2.6h-2.7V1.2h2.7V2.6z
	   M17.7,2.6"/><rect x="4" y="14.5" class="st0" width="8.1" height="1.2"/><rect x="4" y="16.4" class="st0" width="8.1" height="1.2"/></g><path id="p" class="st0" d="M18.1,3h-16c0,0.7,0,0.5,0,1v12c0,0.5,0,0.1,0,1h16c0-0.6,0-0.5,0-1V4C18.1,3.5,18.1,3.8,18.1,3z M8.3,13.7
 l-2.8-4v4H3.9V5.9h1.7v3.8l2.8-3.8h1.8L7.2,9.7l3,4.1H8.3z M14.2,13.7h-1.7V7.3h-2.1V5.9h5.9v1.4h-2.1V13.7z M17.2,16.2
 c-0.7,0-0.5,0-1,0h-2l3-3V16.2z"/><path id="q" class="st0" d="M14.3,2.3H5.7l-4.3,8.6v6.5h17.3v-6.5L14.3,2.3z M14.3,10.9l-2.2,3.2H7.8l-2.2-3.2H2.6l3.8-7.6h7.3l3.8,7.6
	H14.3z M13.2,5.5H6.8V4.4h6.5V5.5z M5.7,6.6h8.6v1.1H5.7V6.6z M4.6,8.8h10.8v1.1H4.6V8.8z M4.6,8.8"/><g id="r"><polygon class="st0" points="9.8,1.5 9.8,4.6 13.1,4.6 	"/><polygon class="st0" points="14,5.4 14,8.6 17.3,8.6 	"/><path class="st0" d="M13.2,5.4H9V1.5H2.3v13h4.2v3.9h10.8v-9h-4.1V5.4z M3.8,7.4h2.7v1H3.8V7.4z M3.8,9.5h2.7v1H3.8V9.5z M3.8,12.7
		v-1h2.7v1H3.8z M15.8,16.6H8v-1h7.8V16.6z M15.8,14.4H8v-1h7.8V14.4z M15.8,11.3v1H8v-1H15.8z"/></g></defs><use xmlns="http://www.w3.org/2000/svg" xmlns:xlink="http://www.w3.org/1999/xlink" xlink:href="#r" transform="translate(0,0)"/><use xmlns="http://www.w3.org/2000/svg" xmlns:xlink="http://www.w3.org/1999/xlink" xlink:href="#q" transform="translate(20,0)"/><use xmlns="http://www.w3.org/2000/svg" xmlns:xlink="http://www.w3.org/1999/xlink" xlink:href="#p" transform="translate(40,0)"/><use xmlns="http://www.w3.org/2000/svg" xmlns:xlink="http://www.w3.org/1999/xlink" xlink:href="#o" transform="translate(60,0)"/><use xmlns="http://www.w3.org/2000/svg" xmlns:xlink="http://www.w3.org/1999/xlink" xlink:href="#n" transform="translate(80,0)"/><use xmlns="http://www.w3.org/2000/svg" xmlns:xlink="http://www.w3.org/1999/xlink" xlink:href="#m" transform="translate(100,0)"/><use xmlns="http://www.w3.org/2000/svg" xmlns:xlink="http://www.w3.org/1999/xlink" xlink:href="#l" transform="translate(120,0)"/><use xmlns="http://www.w3.org/2000/svg" xmlns:xlink="http://www.w3.org/1999/xlink" xlink:href="#k" transform="translate(140,0)"/><use xmlns="http://www.w3.org/2000/svg" xmlns:xlink="http://www.w3.org/1999/xlink" xlink:href="#j" transform="translate(160,0)"/><use xmlns="http://www.w3.org/2000/svg" xmlns:xlink="http://www.w3.org/1999/xlink" xlink:href="#i" transform="translate(180,0)"/><use xmlns="http://www.w3.org/2000/svg" xmlns:xlink="http://www.w3.org/1999/xlink" xlink:href="#h" transform="translate(200,0)"/><use xmlns="http://www.w3.org/2000/svg" xmlns:xlink="http://www.w3.org/1999/xlink" xlink:href="#g" transform="translate(220,0)"/><use xmlns="http://www.w3.org/2000/svg" xmlns:xlink="http://www.w3.org/1999/xlink" xlink:href="#f" transform="translate(240,0)"/><use xmlns="http://www.w3.org/2000/svg" xmlns:xlink="http://www.w3.org/1999/xlink" xlink:href="#e" transform="translate(260,0)"/><use xmlns="http://www.w3.org/2000/svg" xmlns:xlink="http://www.w3.org/1999/xlink" xlink:href="#d" transform="translate(280,0)"/><use xmlns="http://www.w3.org/2000/svg" xmlns:xlink="http://www.w3.org/1999/xlink" xlink:href="#c" transform="translate(300,0)"/><use xmlns="http://www.w3.org/2000/svg" xmlns:xlink="http://www.w3.org/1999/xlink" xlink:href="#b" transform="translate(320,0)"/><use xmlns="http://www.w3.org/2000/svg" xmlns:xlink="http://www.w3.org/1999/xlink" xlink:href="#a" transform="translate(340,0)"/></svg>