<?xml version="1.0" encoding="utf-8"?><!--Generator: Adobe Illustrator 20.1.0, SVG Export Plug-In . SVG Version: 6.00 Build 0)--><svg version="1.1" id="Layer_1" xmlns="http://www.w3.org/2000/svg" xmlns:xlink="http://www.w3.org/1999/xlink" x="0px" y="0px" width="200" height="20" viewBox="0 0 200 20" style="enable-background:new 0 0 200 20;" xml:space="preserve"><style type="text/css">.st0{fill:#FFFFFF;} .st1{fill:#5D5E5E;}</style><defs><g id="a"><path class="st0" d="M16.6,14.1l-0.2-0.4l0.4-1l-0.6-0.6l-1,0.4l-0.4-0.2c0,0-0.4-1-0.5-1h-0.8c-0.1,0-0.4,1-0.4,1l-0.4,0.2l-1-0.4
		  l-0.6,0.6l0.4,1l-0.2,0.4l-1,0.4v0.8c0,0.1,1,0.4,1,0.4l0.2,0.4l-0.4,1l0.6,0.6l1-0.4l0.5,0.2c0,0,0.4,1,0.5,1h0.7
		  c0.1,0,0.4-1,0.4-1l0.5-0.2l1,0.4l0.6-0.6l-0.4-1l0.2-0.4l1-0.4v-0.8C17.6,14.5,16.6,14.1,16.6,14.1L16.6,14.1z M15.1,14.9
		  c0,0.6-0.5,1.2-1.2,1.2c-0.6,0-1.2-0.5-1.2-1.2c0-0.6,0.5-1.2,1.2-1.2C14.6,13.8,15.1,14.3,15.1,14.9L15.1,14.9z"/><path class="st0" d="M9.8,15.6c0,0-0.4,0.6-1.4,0.8V4h5v6.7c0.4-0.1,0.6-0.2,0.9-0.2c0.6,0,1.1,0.2,1.1,0.2V3.1
		  c0-0.2-0.1-0.7-0.1-0.7S15.2,2,14.8,2c0,0-11.9,0-12.1,0C2.3,2.1,2.4,2.9,2.4,3.1v8.1c0,0.6-0.1,1.2,0.2,1.8
		  c0.2,0.6,0.8,1.6,0.8,1.6s0.7,0.9,1.2,1.3c0.5,0.4,0.9,0.8,1.3,1.1c0.4,0.3,0.8,0.6,1.3,0.8c0.4,0.3,0.7,0.4,0.9,0.5
		  s0.3,0.2,0.4,0.2c0.1,0,0.2,0.1,0.3,0.1s0.2,0,0.3-0.1c0.1,0,0.3-0.1,0.4-0.2c0.1-0.1,0.8-0.4,1-0.5c-0.1-0.3-0.3-0.7-0.5-1.2
		  C9.9,16.1,9.8,15.6,9.8,15.6z"/></g><g id="b"><path class="st0" d="M9.1,11.6c0.4-0.2,0.7-0.5,1-0.8l1,0.6l1-1.6l-1-0.6c0.1-0.4,0.2-0.8,0.2-1.3l1.2-0.2l-0.3-1.9L10.9,6
		c-0.2-0.4-0.4-0.8-0.6-1.1l0.8-0.9L9.6,2.7L8.8,3.6C8.4,3.4,8,3.3,7.6,3.2V2H5.7v1.2C5.3,3.3,4.9,3.4,4.5,3.6L3.7,2.7L2.3,3.9
		L3,4.8C2.8,5.2,2.5,5.6,2.4,6L1.2,5.8L0.9,7.6l1.2,0.2c0,0.4,0.1,0.9,0.2,1.3l-1,0.6l1,1.6l1-0.6c0.3,0.3,0.6,0.6,1,0.8l-0.4,1.1
		l1.8,0.7L6,12.2c0.2,0,0.4,0,0.6,0c0.2,0,0.4,0,0.6,0l0.4,1.1l1.8-0.7L9.1,11.6z M6.7,10.1c-1.3,0-2.4-1.1-2.4-2.4
		c0-1.3,1.1-2.4,2.4-2.4c1.3,0,2.4,1.1,2.4,2.4C9.1,9,8,10.1,6.7,10.1L6.7,10.1z M6.7,10.1"/><path class="st0" d="M17.3,13l-0.8,0.3c-0.2-0.3-0.3-0.5-0.6-0.7l0.5-0.7l-1.2-0.7l-0.5,0.7c-0.3-0.1-0.6-0.2-0.9-0.2l-0.1-0.9
		L12.3,11l0.1,0.9c-0.3,0.1-0.6,0.3-0.8,0.4L11,11.7l-0.9,1l0.6,0.6c-0.2,0.3-0.3,0.6-0.3,0.9l-0.9,0l0,1.4l0.9,0
		c0.1,0.3,0.2,0.6,0.3,0.9l-0.7,0.5l0.8,1.1l0.7-0.5c0.2,0.2,0.5,0.4,0.8,0.5l-0.2,0.8l1.3,0.3l0.2-0.8c0.2,0,0.3,0,0.5,0
		c0.2,0,0.3-0.1,0.5-0.1l0.4,0.8l1.2-0.6l-0.4-0.8c0.2-0.2,0.4-0.4,0.6-0.7l0.8,0.3l0.5-1.3l-0.8-0.3c0.1-0.3,0.1-0.6,0-0.9l0.8-0.3
		L17.3,13z M13.8,16.6c-0.9,0.1-1.8-0.5-2-1.5c-0.1-0.9,0.5-1.8,1.5-2c0.9-0.1,1.8,0.5,2,1.5C15.4,15.6,14.8,16.5,13.8,16.6
		L13.8,16.6z M13.8,16.6"/><path class="st0" d="M19.1,8.3l0-1.1l-0.7,0c0-0.2-0.1-0.5-0.2-0.7l0.5-0.4l-0.7-0.8l-0.5,0.4c-0.2-0.2-0.4-0.3-0.6-0.4l0.1-0.7
		L16,4.4l-0.1,0.7c-0.2,0-0.5,0-0.7,0.1l-0.3-0.6l-0.9,0.5l0.3,0.6C14,5.8,13.9,6,13.7,6.2L13.1,6l-0.4,1l0.6,0.3c0,0.2,0,0.5,0,0.7
		l-0.6,0.2l0.3,1L13.6,9c0.1,0.2,0.3,0.4,0.5,0.6l-0.4,0.6l0.9,0.6l0.4-0.6c0.2,0.1,0.5,0.1,0.7,0.1l0.1,0.7l1.1-0.2l-0.1-0.7
		c0.1,0,0.2-0.1,0.3-0.2c0.1-0.1,0.2-0.1,0.3-0.2l0.5,0.5l0.7-0.8L18.1,9c0.1-0.2,0.2-0.4,0.3-0.7L19.1,8.3z M16.5,8.9
		C15.9,9.2,15,9,14.7,8.3c-0.4-0.7-0.1-1.5,0.6-1.9c0.7-0.4,1.5-0.1,1.9,0.6C17.5,7.7,17.2,8.5,16.5,8.9L16.5,8.9z M16.5,8.9"/><path class="st0" d="M14.5,12.5"/></g><g id="c"><path class="st0" d="M10,9.8c1.1,0,2.1-0.4,2.9-1.2c0.8-0.8,1.2-1.8,1.2-2.9c0-1.1-0.4-2.1-1.2-2.9c-0.8-0.8-1.8-1.2-2.9-1.2
				S7.9,1.9,7.1,2.8C6.3,3.6,5.9,4.5,5.9,5.7c0,1.1,0.4,2.1,1.2,2.9C7.9,9.4,8.9,9.8,10,9.8L10,9.8z"/><path class="st0" d="M18.2,14.4c0-0.4-0.1-0.8-0.2-1.3c-0.1-0.5-0.2-0.9-0.3-1.3c-0.1-0.4-0.3-0.8-0.5-1.1c-0.2-0.4-0.5-0.7-0.7-1
				c-0.3-0.3-0.6-0.5-1-0.6c-0.4-0.2-0.8-0.2-1.3-0.2c-0.1,0-0.2,0.1-0.5,0.3c-0.3,0.2-0.5,0.4-0.9,0.6c-0.3,0.2-0.7,0.4-1.3,0.6
				c-0.5,0.2-1,0.3-1.6,0.3c-0.5,0-1-0.1-1.6-0.3c-0.5-0.2-0.9-0.4-1.3-0.6C6.8,9.5,6.5,9.3,6.3,9.2C6,9,5.9,8.9,5.8,8.9
				C5.3,8.9,4.9,9,4.5,9.2c-0.4,0.2-0.7,0.4-1,0.6c-0.3,0.3-0.5,0.6-0.7,1c-0.2,0.4-0.4,0.8-0.5,1.1c-0.1,0.4-0.2,0.8-0.3,1.3
				c-0.1,0.5-0.1,0.9-0.2,1.3c0,0.4,0,0.8,0,1.2c0,0.9,0.3,1.7,0.9,2.2c0.6,0.5,1.3,0.8,2.3,0.8h10.3c0.9,0,1.7-0.3,2.3-0.8
				c0.6-0.5,0.9-1.3,0.9-2.2C18.3,15.2,18.3,14.8,18.2,14.4L18.2,14.4z"/></g><g id="d"><rect x="7.6" y="8.9" class="st0" width="1.7" height="1.7"/><rect x="10.5" y="8.9" class="st0" width="1.7" height="1.7"/><rect x="4.6" y="11.6" class="st0" width="1.7" height="1.7"/><rect x="7.6" y="11.6" class="st0" width="1.7" height="1.7"/><rect x="10.5" y="11.6" class="st0" width="1.7" height="1.7"/><rect x="13.4" y="8.9" class="st0" width="1.7" height="1.7"/><rect x="13.4" y="11.6" class="st0" width="1.7" height="1.7"/><rect x="4.6" y="14.3" class="st0" width="1.7" height="1.7"/><rect x="7.6" y="14.3" class="st0" width="1.7" height="1.7"/><rect x="10.5" y="14.3" class="st0" width="1.7" height="1.7"/><rect x="13.4" y="14.3" class="st0" width="1.7" height="1.7"/><path class="st0" d="M15.4,4.1V1.3h-3.5v2.8H8.1V1.3H4.6v2.8H2.1v14.6h15.8V4.1H15.4z M13.1,2.5h1v3.2h-1V2.5z M5.8,2.5h1v3.2h-1
				V2.5z M16.7,17.3H3.3V7.6h13.4V17.3z"/></g><g id="e"><rect x="1.8" y="17.3" class="st0" width="16.5" height="1"/><rect x="15.3" y="2.5" class="st0" width="3" height="13.5"/><rect x="10.8" y="6.8" class="st0" width="3" height="9.2"/><rect x="6.3" y="11.6" class="st0" width="3" height="4.4"/><rect x="1.8" y="8.3" class="st0" width="3" height="7.7"/></g><g id="f"><polygon class="st0" points="9.8,1.5 9.8,4.6 13.1,4.6 	"/><polygon class="st0" points="14,5.4 14,8.6 17.3,8.6 	"/><path class="st0" d="M13.2,5.4H9V1.5H2.3v13h4.2v3.9h10.8v-9h-4.1V5.4z M3.8,7.4h2.7v1H3.8V7.4z M3.8,9.5h2.7v1H3.8V9.5z M3.8,12.7
				v-1h2.7v1H3.8z M15.8,16.6H8v-1h7.8V16.6z M15.8,14.4H8v-1h7.8V14.4z M15.8,11.3v1H8v-1H15.8z"/></g><g id="g"><polygon class="st0" points="16.9,5.7 12.7,5.7 12.7,1.7 	"/><path class="st0" d="M11.7,6.8v-5H3.1v16.6h13.8V6.8H11.7z M15,16.1H5v-1.3h10V16.1z M15,13.3H5V12h10V13.3z M15,10.5H5V9.2h10
				V10.5z"/></g><polygon id="h" class="st0" points="19.2,11.1 15.7,7.6 15.7,2.5 13.4,2.5 13.4,5.3 10,1.9 0.8,11.1 0.8,11.6 3.1,11.6 3.1,17.4 8.9,17.4
			8.9,13.9 11.1,13.9 11.1,17.4 16.9,17.4 16.9,11.6 19.2,11.6 "/><g id="i"><rect x="3.5" y="4.2" class="st0" width="13.1" height="2.6"/><rect x="3.5" y="8.7" class="st0" width="13.1" height="2.6"/><rect x="3.5" y="13.2" class="st0" width="13.1" height="2.6"/></g><polygon id="j" class="st0" points="12.3,5.3 6.9,10.5 12.3,15.7 "/></defs><use xmlns="http://www.w3.org/2000/svg" xmlns:xlink="http://www.w3.org/1999/xlink" xlink:href="#j" transform="translate(0,0)"/><use xmlns="http://www.w3.org/2000/svg" xmlns:xlink="http://www.w3.org/1999/xlink" xlink:href="#i" transform="translate(20,0)"/><use xmlns="http://www.w3.org/2000/svg" xmlns:xlink="http://www.w3.org/1999/xlink" xlink:href="#h" transform="translate(40,0)"/><use xmlns="http://www.w3.org/2000/svg" xmlns:xlink="http://www.w3.org/1999/xlink" xlink:href="#g" transform="translate(60,0)"/><use xmlns="http://www.w3.org/2000/svg" xmlns:xlink="http://www.w3.org/1999/xlink" xlink:href="#f" transform="translate(80,0)"/><use xmlns="http://www.w3.org/2000/svg" xmlns:xlink="http://www.w3.org/1999/xlink" xlink:href="#e" transform="translate(100,0)"/><use xmlns="http://www.w3.org/2000/svg" xmlns:xlink="http://www.w3.org/1999/xlink" xlink:href="#d" transform="translate(120,0)"/><use xmlns="http://www.w3.org/2000/svg" xmlns:xlink="http://www.w3.org/1999/xlink" xlink:href="#c" transform="translate(140,0)"/><use xmlns="http://www.w3.org/2000/svg" xmlns:xlink="http://www.w3.org/1999/xlink" xlink:href="#b" transform="translate(160,0)"/><use xmlns="http://www.w3.org/2000/svg" xmlns:xlink="http://www.w3.org/1999/xlink" xlink:href="#a" transform="translate(180,0)"/></svg>