<?xml version="1.0" encoding="utf-8"?><!--Generator: Adobe Illustrator 17.1.0, SVG Export Plug-In . SVG Version: 6.00 Build 0)--><!DOCTYPE svg PUBLIC "-//W3C//DTD SVG 1.1//EN" "http://www.w3.org/Graphics/SVG/1.1/DTD/svg11.dtd"><svg version="1.1" id="Layer_1" xmlns="http://www.w3.org/2000/svg" xmlns:xlink="http://www.w3.org/1999/xlink" x="0px" y="0px" viewBox="0 0 197.6 30.2" enable-background="new 0 0 197.6 30.2" xml:space="preserve"><path fill="#3BC8F5" d="M169.5,28.8c0,0.3-0.1,0.6-0.3,0.8c-0.2,0.2-0.5,0.3-0.8,0.3c-0.3,0-0.6-0.1-0.8-0.3
	c-0.2-0.2-0.3-0.5-0.3-0.8V10.4c0-0.3,0.1-0.6,0.3-0.8c0.2-0.2,0.5-0.3,0.8-0.3c0.3,0,0.6,0.1,0.8,0.3c0.2,0.2,0.3,0.5,0.3,0.8v1.2
	c1.9-1.6,3.8-2.4,5.8-2.4c2.2,0,4.1,0.8,5.7,2.4c0.4,0.4,0.8,0.9,1.2,1.4c0.4-0.6,0.8-1,1.2-1.4c1.6-1.6,3.5-2.4,5.7-2.4
	c2.2,0,4.1,0.8,5.7,2.4c1.6,1.6,2.4,3.5,2.4,5.7v0.4c0,0.3-0.1,0.6-0.3,0.8c-0.2,0.2-0.5,0.3-0.8,0.3c-0.3,0-0.6-0.1-0.8-0.3
	c-0.2-0.2-0.3-0.5-0.3-0.8v-0.4c0-1.6-0.6-3-1.7-4.1c-1.1-1.1-2.5-1.7-4.1-1.7c-1.6,0-2.9,0.6-4.1,1.7c-1.1,1.1-1.7,2.5-1.7,4.1
	v11.5c0,0.3-0.1,0.6-0.3,0.8s-0.5,0.3-0.8,0.3c-0.3,0-0.6-0.1-0.8-0.3c-0.2-0.2-0.3-0.5-0.3-0.8V17.3c0-1.6-0.6-3-1.7-4.1
	c-1.1-1.1-2.5-1.7-4.1-1.7c-1.6,0-2.9,0.6-4.1,1.7c-1.1,1.1-1.7,2.5-1.7,4.1V28.8z"/><path fill="#475564" d="M20.5,9.9c0.2,0.2,0.4,0.5,0.4,0.9v17.8c0,0.3-0.1,0.6-0.4,0.8c-0.2,0.2-0.6,0.3-0.9,0.3
	c-0.4,0-0.7-0.1-0.9-0.3c-0.2-0.2-0.4-0.5-0.4-0.8v-2.6c-0.7,1.2-1.8,2.2-3.3,3c-1.5,0.8-3,1.2-4.8,1.2c-1.9,0-3.7-0.5-5.3-1.4
	c-1.6-0.9-2.8-2.2-3.7-3.8C0.4,23.4,0,21.6,0,19.6c0-2,0.5-3.8,1.4-5.4c0.9-1.6,2.1-2.8,3.7-3.7c1.6-0.9,3.3-1.3,5.2-1.3
	c1.7,0,3.3,0.4,4.8,1.1c1.5,0.8,2.5,1.8,3.3,3v-2.5c0-0.3,0.1-0.6,0.4-0.9c0.2-0.2,0.6-0.4,0.9-0.4C19.9,9.6,20.3,9.7,20.5,9.9z
	 M14.6,26.9c1.2-0.7,2.1-1.7,2.8-3c0.7-1.3,1-2.7,1-4.3c0-1.5-0.3-2.9-1-4.2c-0.7-1.3-1.6-2.3-2.8-3c-1.2-0.7-2.6-1.1-4.1-1.1
	c-1.5,0-2.9,0.4-4.1,1.1c-1.2,0.7-2.2,1.7-2.8,2.9c-0.7,1.3-1,2.7-1,4.2c0,1.6,0.3,3,1,4.3c0.7,1.3,1.6,2.3,2.8,3
	C7.6,27.6,9,28,10.5,28C12,28,13.4,27.6,14.6,26.9z"/><path fill="#475564" d="M30.2,29.4c-0.2,0.2-0.6,0.3-0.9,0.3c-0.4,0-0.7-0.1-0.9-0.3c-0.2-0.2-0.4-0.5-0.4-0.8V1.7
	c0-0.3,0.1-0.6,0.4-0.8c0.2-0.2,0.6-0.3,0.9-0.3c0.4,0,0.7,0.1,0.9,0.3c0.2,0.2,0.4,0.5,0.4,0.8v26.9C30.6,28.9,30.5,29.2,30.2,29.4
	z"/><path fill="#475564" d="M68.8,11.6c1.2,1.5,1.9,3.4,1.9,5.8v11.2c0,0.3-0.1,0.6-0.4,0.8c-0.2,0.2-0.6,0.3-0.9,0.3
	c-0.4,0-0.7-0.1-0.9-0.3c-0.2-0.2-0.4-0.5-0.4-0.8V17.5c0-1.7-0.5-3.2-1.4-4.2c-0.9-1.1-2.3-1.6-4.2-1.6c-1.2,0-2.4,0.3-3.5,0.8
	c-1.1,0.5-2,1.2-2.6,2.2c-0.7,0.9-1,1.9-1,2.9v11.1c0,0.3-0.1,0.6-0.4,0.8c-0.2,0.2-0.6,0.3-0.9,0.3c-0.4,0-0.7-0.1-0.9-0.3
	c-0.2-0.2-0.4-0.5-0.4-0.8V17.4c0-1.7-0.4-3.1-1.3-4.2c-0.9-1.1-2.2-1.6-4.1-1.6c-1.2,0-2.3,0.3-3.4,0.8c-1.1,0.5-1.9,1.2-2.6,2.1
	c-0.7,0.9-1,1.8-1,2.9v11.2c0,0.3-0.1,0.6-0.4,0.8c-0.2,0.2-0.6,0.3-0.9,0.3c-0.4,0-0.7-0.1-0.9-0.3c-0.2-0.2-0.4-0.5-0.4-0.8V10.9
	c0-0.3,0.1-0.6,0.4-0.8c0.2-0.2,0.6-0.3,0.9-0.3c0.4,0,0.7,0.1,0.9,0.3c0.2,0.2,0.4,0.5,0.4,0.8v2.3c0.8-1.1,1.8-2,3.2-2.7
	c1.3-0.7,2.7-1.1,4.2-1.1c1.7,0,3.1,0.4,4.4,1.1c1.2,0.7,2.1,1.8,2.6,3.2c0.6-1.2,1.7-2.2,3.4-3c1.6-0.9,3.3-1.3,4.9-1.3
	C65.6,9.4,67.6,10.2,68.8,11.6z"/><path fill="#475564" d="M95.9,19.3c-0.3,0.2-0.6,0.3-0.9,0.3H78.5c0,1.6,0.4,3,1.1,4.2c0.7,1.3,1.7,2.2,3.1,3
	c1.3,0.7,2.9,1.1,4.7,1.1c1.4,0,2.6-0.3,3.7-0.8c1.1-0.5,2-1.2,2.7-2c0.3-0.2,0.6-0.4,0.9-0.4c0.3,0,0.6,0.1,0.8,0.3
	c0.2,0.2,0.3,0.4,0.3,0.7c0,0.3-0.1,0.6-0.4,0.8c-0.9,1-2.1,1.9-3.5,2.5c-1.4,0.7-2.9,1-4.5,1c-2.2,0-4.2-0.4-5.9-1.3
	c-1.7-0.9-3.1-2.1-4-3.7c-1-1.6-1.4-3.4-1.4-5.4c0-2.2,0.5-4.1,1.4-5.7c0.9-1.6,2.2-2.9,3.8-3.7c1.6-0.9,3.2-1.3,5-1.3
	c1.7,0,3.4,0.4,4.9,1.1c1.5,0.7,2.8,1.8,3.7,3.2c1,1.4,1.5,3.1,1.5,5.1C96.3,18.8,96.2,19.1,95.9,19.3z M81.5,13
	c-1.4,1.1-2.4,2.6-2.8,4.5h14.9v-0.3C93.5,16,93,15,92.3,14.1c-0.7-0.9-1.6-1.6-2.7-2c-1.1-0.5-2.2-0.7-3.4-0.7
	C84.5,11.4,83,11.9,81.5,13z"/><path fill="#475564" d="M117.5,28.7c0,0.3-0.1,0.6-0.4,0.8c-0.3,0.3-0.6,0.4-0.9,0.4c-0.4,0-0.8-0.2-1.1-0.6l-6.7-7.8l-6.7,7.9
	c-0.3,0.3-0.6,0.5-1,0.5c-0.3,0-0.6-0.1-0.9-0.3c-0.3-0.2-0.4-0.5-0.4-0.8c0-0.3,0.1-0.5,0.3-0.8l7.1-8.3l-7.3-8.5
	c-0.2-0.2-0.3-0.4-0.3-0.7c0-0.3,0.1-0.6,0.4-0.8c0.3-0.2,0.6-0.4,0.9-0.4c0.4,0,0.8,0.2,1,0.5l6.8,7.9l6.5-7.9
	c0.3-0.3,0.7-0.5,1.1-0.5c0.4,0,0.7,0.1,0.9,0.3c0.2,0.2,0.3,0.4,0.3,0.7c0,0.3-0.1,0.5-0.3,0.8l-7.1,8.4l7.1,8.4
	C117.4,28.2,117.5,28.4,117.5,28.7z"/><path fill="#3BC8F5" d="M140.4,19.3c-0.3,0.2-0.6,0.3-0.9,0.3H123c0,1.6,0.4,3,1.1,4.2c0.7,1.3,1.7,2.2,3.1,3
	c1.3,0.7,2.9,1.1,4.7,1.1c1.4,0,2.6-0.3,3.7-0.8c1.1-0.5,2-1.2,2.7-2c0.3-0.2,0.6-0.4,0.9-0.4c0.3,0,0.6,0.1,0.8,0.3
	c0.2,0.2,0.3,0.4,0.3,0.7c0,0.3-0.1,0.6-0.4,0.8c-0.9,1-2.1,1.9-3.5,2.5c-1.4,0.7-2.9,1-4.5,1c-2.2,0-4.2-0.4-5.9-1.3
	c-1.7-0.9-3.1-2.1-4-3.7c-1-1.6-1.4-3.4-1.4-5.4c0-2.2,0.5-4.1,1.4-5.7c0.9-1.6,2.2-2.9,3.8-3.7c1.6-0.9,3.2-1.3,5-1.3
	c1.7,0,3.4,0.4,4.9,1.1c1.5,0.7,2.8,1.8,3.7,3.2c1,1.4,1.5,3.1,1.5,5.1C140.8,18.8,140.7,19.1,140.4,19.3z M126,13
	c-1.4,1.1-2.4,2.6-2.8,4.5h14.9v-0.3c-0.1-1.2-0.6-2.2-1.3-3.1c-0.7-0.9-1.6-1.6-2.7-2c-1.1-0.5-2.2-0.7-3.4-0.7
	C129,11.4,127.5,11.9,126,13z"/><path fill="#3BC8F5" d="M159.7,9.5c1.2,0.3,2.1,0.7,2.8,1.1c0.7,0.5,1.1,1,1.1,1.5c0,0.3-0.1,0.6-0.3,0.8c-0.2,0.2-0.5,0.4-0.8,0.4
	c-0.3,0-0.5-0.1-0.7-0.2c-0.2-0.1-0.4-0.3-0.6-0.5c-0.4-0.3-0.7-0.6-1.1-0.8c-0.4-0.2-1-0.3-1.7-0.5c-0.7-0.1-1.5-0.2-2.3-0.2
	c-1.6,0-3.1,0.4-4.4,1.1c-1.3,0.7-2.4,1.7-3.1,3c-0.8,1.3-1.1,2.7-1.1,4.2c0,1.6,0.4,3,1.1,4.3c0.7,1.3,1.7,2.3,3,3
	c1.3,0.7,2.8,1.1,4.4,1.1c1,0,1.9-0.1,2.5-0.2c0.6-0.2,1.2-0.4,1.9-0.7c0.2-0.1,0.6-0.3,1-0.7c0.2-0.2,0.4-0.3,0.6-0.4
	c0.2-0.1,0.4-0.1,0.6-0.1c0.3,0,0.6,0.1,0.8,0.3c0.2,0.2,0.3,0.5,0.3,0.8c0,0.4-0.3,0.9-1,1.4s-1.7,1-2.9,1.3
	c-1.2,0.4-2.6,0.6-4.1,0.6c-2.1,0-4-0.5-5.7-1.4c-1.7-0.9-2.9-2.2-3.9-3.8c-0.9-1.6-1.4-3.4-1.4-5.4c0-1.9,0.5-3.7,1.4-5.3
	c0.9-1.6,2.2-2.9,3.9-3.8c1.7-0.9,3.6-1.4,5.8-1.4C157.2,9.1,158.5,9.2,159.7,9.5z"/></svg>