<?xml version="1.0" encoding="utf-8"?><!--Generator: Adobe Illustrator 17.1.0, SVG Export Plug-In . SVG Version: 6.00 Build 0)--><!DOCTYPE svg PUBLIC "-//W3C//DTD SVG 1.1//EN" "http://www.w3.org/Graphics/SVG/1.1/DTD/svg11.dtd"><svg version="1.1" id="Layer_1" xmlns="http://www.w3.org/2000/svg" xmlns:xlink="http://www.w3.org/1999/xlink" x="0px" y="0px" viewBox="0 0 112 138" enable-background="new 0 0 112 138" xml:space="preserve"><g><g><polygon fill="#F5F5F5" points="60,0.2 60,31 91.1,31 		"/><path fill="#F5F5F5" d="M55,30.8V0c-5,0-3.3,0-6.6,0H5.6C2.2,0,0,3,0,6.3v103.9c0,3.4,2.2,5.7,5.6,5.7H85c3.4,0,6-2.4,6-5.7V43
			c0-3.4,0,0,0-5H60.6C57.2,38,55,34.2,55,30.8z"/></g><circle fill="#FFFFFF" cx="82.6" cy="108.2" r="29.5"/><g><path fill="#F5F5F5" d="M82.6,83.2c-13.8,0-25.1,11.2-25.1,25.1c0,13.8,11.2,25.1,25.1,25.1c13.8,0,25.1-11.2,25.1-25.1
			C107.6,94.4,96.4,83.2,82.6,83.2L82.6,83.2z M62.1,108.2c0-11.3,9.2-20.5,20.5-20.5c5.1,0,9.7,1.9,13.3,5L67,121.6
			C63.9,118,62.1,113.3,62.1,108.2L62.1,108.2z M82.6,128.7c-4.6,0-8.8-1.5-12.2-4L99,96.1c2.5,3.4,4,7.6,4,12.2
			C103,119.5,93.8,128.7,82.6,128.7L82.6,128.7z M82.6,128.7"/></g><rect x="9.8" y="45.2" fill="#FFFFFF" width="70.1" height="4.7"/><rect x="9.8" y="66.6" fill="#FFFFFF" width="70.1" height="4.7"/><rect x="9.8" y="88" fill="#FFFFFF" width="38.9" height="4.7"/></g></svg>