<?xml version="1.0" encoding="utf-8"?><!--Generator: Adobe Illustrator 17.1.0, SVG Export Plug-In . SVG Version: 6.00 Build 0)--><!DOCTYPE svg PUBLIC "-//W3C//DTD SVG 1.1//EN" "http://www.w3.org/Graphics/SVG/1.1/DTD/svg11.dtd"><svg version="1.1" id="Layer_1" xmlns="http://www.w3.org/2000/svg" xmlns:xlink="http://www.w3.org/1999/xlink" x="0px" y="0px" viewBox="0 0 168 134" enable-background="new 0 0 168 134" xml:space="preserve"><g><path fill="#F5F5F5" d="M38.9,37.3c5.1,0,9.5-1.8,13.1-5.4c3.6-3.6,5.4-8,5.4-13.1c0-5.1-1.8-9.5-5.4-13.1c-3.6-3.6-8-5.4-13.1-5.4
		c-5.1,0-9.5,1.8-13.1,5.4c-3.6,3.6-5.4,8-5.4,13.1c0,5.1,1.8,9.5,5.4,13.1C29.4,35.5,33.8,37.3,38.9,37.3L38.9,37.3z M38.9,37.3"/><path fill="#F5F5F5" d="M60.9,66.2c5.4,5.4,12,8.1,19.6,8.1s14.2-2.7,19.6-8.1c5.4-5.4,8.1-12,8.1-19.6s-2.7-14.2-8.1-19.6
		c-5.4-5.4-12-8.1-19.6-8.1s-14.2,2.7-19.6,8.1c-5.4,5.4-8.1,12-8.1,19.6S55.5,60.8,60.9,66.2L60.9,66.2z M60.9,66.2"/><path fill="#F5F5F5" d="M122.2,37.3c5.1,0,9.5-1.8,13.1-5.4c3.6-3.6,5.4-8,5.4-13.1c0-5.1-1.8-9.5-5.4-13.1
		c-3.6-3.6-8-5.4-13.1-5.4c-5.1,0-9.5,1.8-13.1,5.4c-3.6,3.6-5.4,8-5.4,13.1c0,5.1,1.8,9.5,5.4,13.1
		C112.7,35.5,117.1,37.3,122.2,37.3L122.2,37.3z M122.2,37.3"/><path fill="#F5F5F5" d="M141,37.3c-0.3,0-1.3,0.5-3.1,1.5c-1.8,1-4.2,2-7.1,3.1c-2.9,1-5.8,1.6-8.6,1.6c-3.2,0-6.4-0.6-9.6-1.7
		c0.2,1.8,0.4,3.4,0.4,4.8c0,6.7-2,12.9-5.9,18.5c7.8,0.2,14.2,3.3,19.2,9.3h9.7c4,0,7.3-1,10-2.9c2.7-2,4.1-4.8,4.1-8.6
		C150,45.8,147,37.3,141,37.3L141,37.3z M141,37.3"/><path fill="#F5F5F5" d="M130.2,95.8c-0.5-2.8-1.1-5.4-1.9-7.9c-0.8-2.4-1.8-4.8-3.1-7.1c-1.3-2.3-2.8-4.2-4.5-5.9
		c-1.7-1.6-3.8-2.9-6.2-3.9c-2.4-1-5.1-1.4-8.1-1.4c-0.5,0-1.5,0.5-3.1,1.6c-1.6,1-3.3,2.2-5.3,3.5c-1.9,1.3-4.5,2.4-7.7,3.5
		c-3.2,1-6.5,1.6-9.8,1.6c-3.3,0-6.5-0.5-9.8-1.6c-3.2-1-5.8-2.2-7.7-3.5c-1.9-1.3-3.7-2.4-5.3-3.5c-1.6-1-2.6-1.6-3.1-1.6
		c-2.9,0-5.6,0.5-8.1,1.4c-2.4,1-4.5,2.3-6.2,3.9c-1.7,1.6-3.2,3.6-4.5,5.9c-1.3,2.3-2.3,4.6-3.1,7.1c-0.8,2.4-1.4,5-1.9,7.9
		c-0.5,2.8-0.8,5.4-1,7.9c-0.2,2.4-0.3,4.9-0.3,7.5c0,5.8,1.8,10.4,5.3,13.7c3.5,3.4,8.2,5,14,5h63.2c5.8,0,10.5-1.7,14-5
		c3.5-3.4,5.3-7.9,5.3-13.7c0-2.6-0.1-5.1-0.3-7.5C131.1,101.3,130.7,98.6,130.2,95.8L130.2,95.8z M130.2,95.8"/><path fill="#F5F5F5" d="M54,65.1c-3.9-5.6-5.9-11.8-5.9-18.5c0-1.4,0.1-3,0.4-4.8c-3.2,1.1-6.4,1.7-9.6,1.7c-2.8,0-5.7-0.5-8.6-1.6
		c-2.9-1-5.2-2.1-7.1-3.1c-1.8-1-2.9-1.5-3.1-1.5c-6,0-9,8.5-9,25.5c0,3.8,1.4,6.6,4,8.6c2.7,2,6,2.9,10,2.9h9.7
		C39.8,68.4,46.2,65.4,54,65.1L54,65.1z M54,65.1"/></g><g><path fill="#F5F5F5" d="M82.3,108.8C42.4,108.8,0,98.2,0,78.5C0,69,10.3,60.7,28.9,55.1l2,6.7C16.2,66.3,7,72.7,7,78.5
		c0,11,30.9,23.3,75.3,23.3V108.8z"/></g><circle fill="#FFFFFF" cx="139" cy="104.7" r="29"/><g><path fill="#F5F5F5" d="M139,80.1c-13.6,0-24.7,11.1-24.7,24.7c0,13.6,11.1,24.7,24.7,24.7c13.6,0,24.7-11.1,24.7-24.7
		C163.7,91.1,152.6,80.1,139,80.1L139,80.1z M118.9,104.7c0-11.1,9-20.1,20.1-20.1c5,0,9.6,1.8,13.1,4.9l-28.4,28.4
		C120.7,114.3,118.9,109.7,118.9,104.7L118.9,104.7z M139,124.9c-4.5,0-8.6-1.5-12-4l28.2-28.2c2.5,3.3,4,7.5,4,12
		C159.2,115.8,150.1,124.9,139,124.9L139,124.9z M139,124.9"/></g></svg>