<?xml version="1.0" encoding="utf-8"?><!--Generator: Adobe Illustrator 17.1.0, SVG Export Plug-In . SVG Version: 6.00 Build 0)--><!DOCTYPE svg PUBLIC "-//W3C//DTD SVG 1.1//EN" "http://www.w3.org/Graphics/SVG/1.1/DTD/svg11.dtd"><svg version="1.1" id="Layer_1" xmlns="http://www.w3.org/2000/svg" xmlns:xlink="http://www.w3.org/1999/xlink" x="0px" y="0px" viewBox="0 0 224 202" enable-background="new 0 0 224 202" xml:space="preserve"><g><g><path fill="#F5F5F5" d="M136.2,150.6c-1.2-0.4-2.4-0.8-3.6-1.1c0.6-2.7,1.2-5.5,1.7-8.6c2.5-1.7,5.1-3.5,7.6-5.4
			c0.1,1.6,0.2,3.1,0.3,4.6C140.2,143.9,138.3,147.4,136.2,150.6L136.2,150.6z M68.2,31.5c1.4-1.1,2.9-2.1,4.3-3.1
			c0-0.7,0.1-1.4,0.2-2.1c1.4-0.6,2.8-1.1,4.1-1.6c1.7,2.2,3.6,4.9,5.7,8c-0.7,0.7-1.4,1.4-2,2.1c-2.2,0.8-4.5,1.6-6.8,2.4
			c0.3-2.4,0.6-4.7,0.9-6.8c-0.9,1.4-1.7,2.9-2.7,4.5c-1.5,0-3.1,0.1-4.6,0.2C67.6,33.9,67.9,32.7,68.2,31.5L68.2,31.5z M184.4,91.3
			c-2.2,2.7-4.8,5.5-7.7,8.6c0,1.8-0.1,3.6-0.2,5.4c-1.1,1.5-2.2,3.1-3.4,4.6c-1.1-4.6-2.4-9.5-3.9-14.4c-1.6-2.6-3.4-5.3-5.3-8
			c-4.4-1.1-9.1-2.2-14.1-3.3c-1.5-1.4-3-2.8-4.6-4.2c-0.8,0.4-1.5,0.9-2.2,1.3c1.1,2.8,2.3,5.7,3.4,8.5c1.7-0.9,3.4-1.9,5-2.8
			c2.2,1.9,4.3,3.7,6.3,5.5c-6.1,4.2-12.7,8.7-19.7,13.2c-3.3-7.3-7-15-10.8-22.5c-0.8,0.1-1.6,0.2-2.4,0.4
			c4,9.1,7.8,18.2,11.1,26.8c3.7-1.9,7.2-3.7,10.7-5.5c-1.2,4.1-2.4,8.2-3.8,12.1c-3.6,3.4-7.4,6.8-11.2,10.1
			c0.2,4.6,0.3,9,0.3,13.1c-2.1,1.4-4.2,2.8-6.3,4.2c-4.3,5.8-8.5,10.8-12.6,14.7c-3.4,0.5-6.8,0.8-10.2,1.2
			c-2.5-3.9-5.5-9.3-8.8-15.7c0.8-3,1.6-6.1,2.4-9.4c-2.1-5.8-4.2-12.1-6.4-18.7c-7.4,0.5-14.7,0.8-21.8,1.2
			c-4.1-3.9-8.2-7.9-12.1-11.8c0.5-6.3,1.1-12.9,1.9-19.4c3.9-4.8,7.9-9.7,11.9-14.4c7.6-1.4,15.4-2.8,23.1-4.1c0.5,2,1,4,1.4,6
			c3.2,2,6.3,4.1,9.5,6.1c1.2-1.7,2.4-3.4,3.6-5c4.8,1.3,9.6,2.5,14.3,3.8c1.2-0.8,2.4-1.5,3.6-2.2c0.5-1.8,0.9-3.5,1.4-5.2
			c-3.2-0.6-6.4-1.2-9.7-1.8c-1.1-1.8-2.2-3.6-3.3-5.4c-0.8-0.4-1.6-0.8-2.3-1.1c-0.6,2.2-1.2,4.4-1.9,6.7c-1.5-1.8-3-3.6-4.4-5.4
			c0-1.5,0.1-2.9,0.2-4.4c-1.9-1.5-3.9-2.9-5.8-4.3c-1.1-0.5-2.3-1.1-3.4-1.6c0.1,1.4,0.2,2.8,0.3,4.2c2.4,1.5,4.8,3.1,7.3,4.6
			c-1.2,1.4-2.5,2.8-3.7,4.1c-1.8-2.2-3.6-4.5-5.3-6.6c-1.2-1.4-2.5-2.7-3.7-4c-2.9,1.3-5.8,2.7-8.7,4.1c-2.1,3-4.2,6.1-6.3,9.2
			c-3.1-0.4-6.1-0.8-9.1-1.3c0-3.7,0-7.4,0-10.9c3.8,0.2,7.6,0.3,11.5,0.6c-1.2-1.9-2.3-3.6-3.5-5.4c-0.6-1.4-1.3-2.8-1.9-4.2
			c2.9-0.9,5.8-1.8,8.7-2.6c1.6-1.8,3.3-3.6,4.8-5.3c1.3-0.1,2.5-0.2,3.8-0.3c-0.2-0.9-0.5-1.9-0.7-2.8c0.8-0.9,1.6-1.6,2.4-2.4
			c0.6,1.3,1.2,2.7,1.9,4.1c3.5,0.1,7,0.2,10.5,0.3c0.9-2,1.7-3.9,2.5-5.7c1.4,0.3,2.7,0.7,4,1.1c-0.5-1.2-1.1-2.4-1.6-3.6
			c1.9-0.4,3.8-0.8,5.7-1.1c-0.7-0.5-1.4-1-2.1-1.5c-1.6,0.2-3.4,0.6-5.1,0.8c-0.7-1-1.4-1.9-2.2-2.8c-0.1,0-0.2,0-0.2,0
			c0-0.1,0.1-0.2,0.1-0.2c-0.3-0.4-0.6-0.8-0.9-1.1c0.6-0.2,1.3-0.5,1.9-0.8c0.5-0.8,0.9-1.5,1.4-2.2c-0.6,0-1.3-0.1-1.9-0.2
			c-0.9,0.6-1.8,1.2-2.8,1.8c-0.8,1-1.6,2.1-2.4,3.3c1.1,0.7,2.1,1.4,3.1,2.1c-0.8,1.7-1.8,3.7-2.8,5.8c-1.6,0.5-3.1,0.9-4.7,1.4
			c-0.9-2.2-1.8-4.2-2.6-6.1c-1.8,0.7-3.6,1.4-5.5,2.2c-0.8-0.4-1.7-0.7-2.5-1.1c0.2-1.9,0.4-3.6,0.6-5.1c1.6-0.7,3.1-1.4,4.5-1.9
			c1.3-1.7,2.5-3,3.6-4c2.8-0.6,5.6-1.1,8.2-1.4c6.7,0.3,13.6,0.8,20.6,1.4c9.7-0.3,21.5-0.8,26.8-1C134.2,7.4,114.4,0,92.7,0
			c-22,0-42.3,7.7-58.2,20.6c1.1,0.2,2.1,0.3,3.2,0.5c0.6,1.6,1.4,3.3,2.2,5.3c0.3,1,0.6,2,0.9,3.1c-1.7,1.6-3.3,3.3-5,5.2
			c-0.3,0.9-0.7,1.8-1,2.8c-1.2,0.7-2.4,1.4-3.6,2.1c-0.8,2.6-1.5,5.3-2.2,8.2c-1.5-0.2-2.9-0.4-4.3-0.6c-1-5.7-1.6-10.5-2-15.1
			c-4.3,4.9-8.2,10.3-11.3,16.1c0.5-0.4,0.9-0.8,1.4-1.2c1.2,6.3,2.7,13.1,4.7,20.6c-4.1,2.6-7.7,5.3-10.9,7.7
			c-2.3,2.1-4.3,4.2-6,6.2C0.3,85.1,0,88.9,0,92.7c0,7.9,1.1,15.6,3,22.9c1.7,0.6,3.4,1.2,5.4,1.8c3.1,3.5,6.5,7,10.3,10.5
			c0.8,2.5,1.7,4.9,2.6,7.3c4.9,3.1,10.3,6.1,15.9,8.9c-1.7,5.2-3,9.9-4,13.8c-2.2,0.1-4.3,0.1-6.4,0.2c16.8,17,40.1,27.5,65.9,27.5
			c50.4,0,91.3-40.2,92.6-90.2C185,94,184.7,92.7,184.4,91.3L184.4,91.3z M184.4,91.3"/></g><circle fill="#FFFFFF" cx="178" cy="156" r="46"/><g><path fill="#F5F5F5" d="M178,116.9c-21.6,0-39.1,17.6-39.1,39.1c0,21.6,17.6,39.1,39.1,39.1c21.6,0,39.1-17.6,39.1-39.1
			C217.2,134.5,199.6,116.9,178,116.9L178,116.9z M146.1,156c0-17.6,14.3-32,32-32c7.9,0,15.2,2.9,20.8,7.7l-45.1,45.1
			C149,171.3,146.1,164,146.1,156L146.1,156z M178,188c-7.1,0-13.7-2.3-19-6.3l44.7-44.7c3.9,5.3,6.3,11.9,6.3,19
			C210,173.7,195.7,188,178,188L178,188z M178,188"/></g></g></svg>