<?xml version="1.0" encoding="utf-8"?><!--Generator: Adobe Illustrator 17.1.0, SVG Export Plug-In . SVG Version: 6.00 Build 0)--><!DOCTYPE svg PUBLIC "-//W3C//DTD SVG 1.1//EN" "http://www.w3.org/Graphics/SVG/1.1/DTD/svg11.dtd"><svg version="1.1" id="Capa_1" xmlns="http://www.w3.org/2000/svg" xmlns:xlink="http://www.w3.org/1999/xlink" x="0px" y="0px" viewBox="0 0 512 512" enable-background="new 0 0 512 512" xml:space="preserve"><g><path fill="#A4B4C4" d="M309,114.5c23.7,14.8,40.3,40,43.3,69.1c9.7,4.5,20.4,7.1,31.7,7.1c41.5,0,75.1-33.6,75.1-75.1
		c0-41.5-33.6-75.1-75.1-75.1C342.9,40.6,309.6,73.6,309,114.5z M259.8,268.3c41.5,0,75.1-33.6,75.1-75.1s-33.6-75.1-75.1-75.1
		s-75.1,33.6-75.1,75.1S218.3,268.3,259.8,268.3z M291.6,273.4h-63.7c-53,0-96.1,43.1-96.1,96.2v77.9l0.2,1.2l5.4,1.7
		c50.6,15.8,94.5,21.1,130.7,21.1c70.7,0,111.6-20.1,114.1-21.4l5-2.5h0.5v-77.9C387.8,316.5,344.6,273.4,291.6,273.4z M415.9,195.9
		h-63.2c-0.7,25.3-11.5,48.1-28.6,64.5c47.1,14,81.6,57.7,81.6,109.3v24c62.4-2.3,98.4-20,100.8-21.2l5-2.5h0.5V292
		C512,239,468.9,195.9,415.9,195.9z M128,190.7c14.7,0,28.4-4.3,39.9-11.6c3.7-24,16.5-45,34.9-59.3c0.1-1.4,0.2-2.8,0.2-4.2
		c0-41.5-33.6-75.1-75.1-75.1c-41.5,0-75.1,33.6-75.1,75.1C52.9,157.1,86.5,190.7,128,190.7z M195.5,260.3
		c-17-16.3-27.8-39-28.5-64.1c-2.3-0.2-4.7-0.4-7.1-0.4H96.1C43.1,195.9,0,239,0,292v77.9l0.2,1.2l5.4,1.7
		c40.6,12.7,76.8,18.5,108.3,20.4v-23.5C113.9,318,148.3,274.3,195.5,260.3z"/></g></svg>