<?xml version="1.0" encoding="utf-8"?><!--Generator: Adobe Illustrator 17.1.0, SVG Export Plug-In . SVG Version: 6.00 Build 0)--><!DOCTYPE svg PUBLIC "-//W3C//DTD SVG 1.1//EN" "http://www.w3.org/Graphics/SVG/1.1/DTD/svg11.dtd"><svg version="1.1" id="Layer_1" xmlns="http://www.w3.org/2000/svg" xmlns:xlink="http://www.w3.org/1999/xlink" x="0px" y="0px" viewBox="0 0 512 512" enable-background="new 0 0 512 512" xml:space="preserve"><rect fill="#A4B4C4" width="512" height="512"/><g><path fill="#FFFFFF" d="M196.7,231.6c16.3,16.3,35.9,24.4,58.8,24.4c23,0,42.6-8.1,58.9-24.4c16.3-16.3,24.4-35.9,24.4-58.8
		s-8.1-42.6-24.4-58.8c-16.3-16.3-35.9-24.4-58.9-24.4c-23,0-42.6,8.1-58.8,24.4c-16.3,16.2-24.4,35.9-24.4,58.8
		S180.5,215.4,196.7,231.6L196.7,231.6z M196.7,231.6"/><path fill="#FFFFFF" d="M404.4,320.3c-1.5-8.5-3.4-16.3-5.8-23.5c-2.3-7.2-5.4-14.3-9.3-21.1c-3.9-6.9-8.4-12.7-13.4-17.6
		c-5.1-4.8-11.2-8.7-18.5-11.6c-7.3-2.9-15.4-4.3-24.2-4.3c-1.4,0-4.5,1.6-9.3,4.7c-4.8,3.1-10,6.6-15.8,10.4
		c-5.8,3.8-13.5,7.3-23.2,10.4c-9.7,3.1-19.4,4.7-29.3,4.7c-9.8,0-19.6-1.6-29.3-4.7c-9.7-3.1-17.4-6.6-23.2-10.4
		c-5.8-3.8-11.1-7.3-15.8-10.4c-4.8-3.1-7.9-4.7-9.3-4.7c-8.8,0-16.9,1.5-24.2,4.3c-7.3,2.9-13.5,6.8-18.5,11.6
		c-5.1,4.8-9.5,10.7-13.4,17.6c-3.9,6.9-7,13.9-9.3,21.1c-2.3,7.2-4.2,15.1-5.7,23.5c-1.5,8.4-2.5,16.3-3,23.6
		c-0.5,7.3-0.8,14.8-0.8,22.4c0,17.3,5.3,31,15.8,41.1c10.6,10,24.6,15.1,42.1,15.1h189.5c17.5,0,31.5-5,42.1-15.1
		c10.5-10,15.8-23.7,15.8-41.1c0-7.7-0.3-15.1-0.8-22.4C406.9,336.6,405.9,328.7,404.4,320.3L404.4,320.3z M404.4,320.3"/><path fill="#FFFFFF" d="M176,228.3"/></g></svg>