<?xml version="1.0" encoding="utf-8"?><!--Generator: Adobe Illustrator 17.1.0, SVG Export Plug-In . SVG Version: 6.00 Build 0)--><!DOCTYPE svg PUBLIC "-//W3C//DTD SVG 1.1//EN" "http://www.w3.org/Graphics/SVG/1.1/DTD/svg11.dtd"><svg version="1.1" id="Layer_1" xmlns="http://www.w3.org/2000/svg" xmlns:xlink="http://www.w3.org/1999/xlink" x="0px" y="0px" viewBox="0 0 80 26" enable-background="new 0 0 80 26" xml:space="preserve"><g><path fill="#475564" d="M7.8,9.8H7l-3.6-5L2.2,6v3.9H1.5V0.4h0.7v4.9l1-1l3.7-3.8h0.8l-3.8,4L7.8,9.8z"/><path fill="#475564" d="M13.7,6.5H9.8L8.5,9.8H7.8l3.8-9.4H12l3.7,9.4H15L13.7,6.5z M10.1,5.9h3.4l-1.3-3.4
		c-0.1-0.3-0.2-0.6-0.4-1.1c-0.1,0.4-0.2,0.8-0.4,1.1L10.1,5.9z"/><path fill="#475564" d="M22.8,9.8h-6.5V9.3L21.7,1h-5.2V0.4h6.1v0.5l-5.5,8.3h5.7V9.8z"/><path fill="#475564" d="M8.6,20.8c0,1.6-0.4,2.8-1.2,3.6c-0.8,0.8-2,1.2-3.6,1.2H1.5v-9.4H4c1.5,0,2.6,0.4,3.4,1.2
		C8.2,18.2,8.6,19.3,8.6,20.8z M7.9,20.8c0-1.3-0.3-2.4-1-3c-0.7-0.7-1.7-1-3-1H2.2V25h1.6C6.5,25,7.9,23.6,7.9,20.8z"/><path fill="#475564" d="M18.7,20.9c0,1.5-0.4,2.7-1.1,3.5c-0.7,0.9-1.8,1.3-3.1,1.3c-1.3,0-2.3-0.4-3.1-1.3c-0.7-0.9-1.1-2-1.1-3.5
		c0-1.5,0.4-2.7,1.1-3.5c0.8-0.9,1.8-1.3,3.1-1.3c1.3,0,2.3,0.4,3.1,1.3C18.3,18.2,18.7,19.4,18.7,20.9z M11,20.9
		c0,1.3,0.3,2.4,0.9,3.1c0.6,0.7,1.5,1.1,2.6,1.1c1.1,0,2-0.4,2.6-1.1c0.6-0.7,0.9-1.8,0.9-3.1c0-1.4-0.3-2.4-0.9-3.1
		c-0.6-0.7-1.5-1.1-2.6-1.1c-1.1,0-2,0.4-2.6,1.1C11.3,18.5,11,19.6,11,20.9z"/><path fill="#475564" d="M24.8,16.7c-1.2,0-2.1,0.4-2.8,1.1c-0.7,0.8-1,1.8-1,3.1c0,1.3,0.3,2.4,1,3.1c0.6,0.7,1.5,1.1,2.7,1.1
		c0.8,0,1.5-0.1,2.2-0.3v0.6c-0.6,0.2-1.4,0.3-2.3,0.3c-1.3,0-2.4-0.4-3.1-1.3s-1.1-2-1.1-3.6c0-1,0.2-1.8,0.5-2.5
		c0.4-0.7,0.9-1.3,1.6-1.7s1.5-0.6,2.4-0.6c0.9,0,1.7,0.2,2.5,0.5L27,17.2C26.3,16.8,25.6,16.7,24.8,16.7z"/><path fill="#475564" d="M35.9,16.2v6.1c0,1.1-0.3,1.9-0.9,2.5c-0.6,0.6-1.5,0.9-2.6,0.9c-1.1,0-1.9-0.3-2.5-0.9
		c-0.6-0.6-0.9-1.5-0.9-2.6v-6h0.7v6.1c0,0.9,0.3,1.6,0.8,2.1c0.5,0.5,1.2,0.8,2.1,0.8c0.9,0,1.6-0.2,2.1-0.7
		c0.5-0.5,0.7-1.2,0.7-2.1v-6.1H35.9z"/><path fill="#475564" d="M42.6,25.6l-3.5-8.7H39c0,0.5,0.1,1.1,0.1,1.6v7h-0.6v-9.4h1l3.3,8.3h0l3.3-8.3h1v9.4h-0.7v-7.1
		c0-0.5,0-1,0.1-1.5h-0.1L43,25.6H42.6z"/><path fill="#475564" d="M54.9,25.6h-5.1v-9.4h5.1v0.6h-4.5v3.6h4.2V21h-4.2v4h4.5V25.6z"/><path fill="#475564" d="M63.9,25.6h-0.7l-5.6-8.3h-0.1c0.1,1,0.1,1.7,0.1,2.2v6.1h-0.6v-9.4h0.7l5.6,8.3h0c0-0.8-0.1-1.5-0.1-2.2
		v-6.1h0.6V25.6z"/><path fill="#475564" d="M69,25.6h-0.7v-8.8h-3.1v-0.6H72v0.6H69V25.6z"/><path fill="#475564" d="M78.6,23.2c0,0.8-0.3,1.4-0.9,1.9c-0.6,0.5-1.3,0.7-2.3,0.7c-1.1,0-2-0.1-2.6-0.4v-0.7
		c0.7,0.3,1.5,0.4,2.6,0.4c0.8,0,1.4-0.2,1.8-0.5c0.5-0.4,0.7-0.8,0.7-1.4c0-0.4-0.1-0.6-0.2-0.9c-0.2-0.2-0.4-0.4-0.7-0.6
		c-0.3-0.2-0.8-0.4-1.5-0.6c-1-0.3-1.6-0.7-2-1.1c-0.4-0.4-0.5-0.9-0.5-1.5c0-0.7,0.3-1.3,0.8-1.7c0.6-0.4,1.3-0.7,2.1-0.7
		c0.9,0,1.7,0.2,2.5,0.5l-0.2,0.6c-0.8-0.3-1.5-0.5-2.2-0.5c-0.7,0-1.2,0.2-1.7,0.5c-0.4,0.3-0.6,0.8-0.6,1.3c0,0.3,0.1,0.6,0.2,0.9
		s0.3,0.4,0.6,0.6c0.3,0.2,0.8,0.4,1.5,0.6c0.7,0.3,1.3,0.5,1.7,0.7c0.4,0.2,0.6,0.5,0.8,0.8C78.5,22.4,78.6,22.7,78.6,23.2z"/></g></svg>